<svg width="20" height="18" fill="none" xmlns="http://www.w3.org/2000/svg"><path d="M12.717 17.42v-2.21c.354-.067.66-.152.925-.258.723-.288 1.281-.71 1.675-1.261a3.051 3.051 0 00.592-1.81c0-.55-.13-1.047-.389-1.493a2.754 2.754 0 00-1.053-1.041c-.306-.177-.75-.34-1.327-.488.539-.184.973-.414 1.302-.695.328-.28.58-.604.757-.969.174-.366.26-.753.26-1.16 0-.561-.165-1.077-.494-1.547-.33-.469-.803-.829-1.416-1.08a4.48 4.48 0 00-.83-.23V1h-2.09v2.031H9.284V1H7.19v2.031H4v1.71h.487c.324 0 .545.03.66.089.115.06.196.139.244.239.047.1.07.333.07.699v6.89c0 .36-.023.593-.07.695a.488.488 0 01-.244.239c-.115.055-.336.084-.66.084H4v1.71h3.191v2.032h2.093v-2.033h1.19l.154-.001v2.034h2.09v.002zm-4.2-12.393H9.87c.793 0 1.34.049 1.648.146.306.098.541.262.704.492.162.23.243.508.243.832 0 .313-.085.59-.256.829-.172.24-.425.418-.765.535-.338.119-.863.178-1.573.178H8.517V5.027zm1.642 8.387h-.902c-.3 0-.485-.017-.553-.05a.281.281 0 01-.146-.173c-.023-.065-.038-.287-.043-.663V9.853h1.599c.7 0 1.222.066 1.564.194.341.13.596.322.767.576.171.253.257.564.257.93 0 .432-.12.8-.363 1.108-.24.307-.533.51-.878.607-.343.096-.778.146-1.302.146z" fill="#fff"/></svg>