<svg width="20" height="18" fill="none" xmlns="http://www.w3.org/2000/svg"><path d="M13.816 1H5.26c-.575 0-1.043.468-1.043 1.043v14.914c0 .575.468 1.043 1.043 1.043h10.48c.575 0 1.043-.468 1.043-1.043V4.224L13.816 1zm.246 1.56l1.3 1.413h-1.3V2.56zm1.845 14.397a.168.168 0 01-.167.168H5.26a.167.167 0 01-.167-.168V2.043c0-.093.075-.167.167-.167h7.926V4.41c0 .242.197.437.438.437h2.283v12.11zm-9.27-11.3h7.434a.328.328 0 010 .655H6.637a.328.328 0 010-.656zm7.763 2.53a.328.328 0 01-.328.328H6.637a.328.328 0 010-.656h7.434c.181 0 .328.147.328.328zm0 2.132a.328.328 0 01-.328.328H6.637a.328.328 0 010-.656h7.434c.181 0 .328.147.328.328zm0 2.168a.328.328 0 01-.328.328H6.637a.328.328 0 010-.656h7.434c.181 0 .328.147.328.328z" fill="#fff"/></svg>