<svg width="20" height="18" fill="none" xmlns="http://www.w3.org/2000/svg"><g clip-path="url(#clip0)"><path d="M12.707.687l-2.76 1.75L7.226.723.965 4.486l2.897 1.823-2.88 2.886 3.191 1.919v2.763L9.95 17.35l5.775-3.472v-2.672l3.223-1.938-2.916-2.957 2.934-1.86L12.707.686zm.014 1.236l4.243 2.55-1.772 1.124-4.243-2.55 1.772-1.124zM9.95 8.758L5.72 6.215l4.23-2.543 4.23 2.543-4.23 2.543zm-2.737-6.8l1.733 1.09-4.24 2.55L2.97 4.507l4.241-2.55zM4.78 6.877l4.322 2.598-2.105 2.109-4.322-2.599L4.78 6.877zm.443 4.867L7.16 12.91l2.264-2.268v5.166l-4.2-2.525v-1.537zm9.451 1.537l-4.2 2.525v-5.155l2.296 2.329 1.904-1.145v1.446zm-1.736-1.629l-2.146-2.175 4.324-2.6 2.145 2.176-4.323 2.6z" fill="#fff"/></g><defs><clipPath id="clip0"><path fill="#fff" transform="translate(1)" d="M0 0h18v18H0z"/></clipPath></defs></svg>