<svg width="20" height="18" fill="none" xmlns="http://www.w3.org/2000/svg"><path d="M15.413 0H4.587C3.712 0 3 .7 3 1.56v14.88C3 17.3 3.712 18 4.587 18h10.826c.875 0 1.587-.7 1.587-1.56V1.56C17 .7 16.288 0 15.413 0zm.514 16.44a.51.51 0 01-.514.505H4.587a.51.51 0 01-.514-.505V1.56a.51.51 0 01.514-.505h10.826a.51.51 0 01.514.505v14.88z" fill="#fff"/><path d="M14.31 2.118H5.69a.532.532 0 00-.536.527v10.591c0 .291.24.527.536.527h8.618a.532.532 0 00.537-.527V2.646a.532.532 0 00-.537-.528zm-.537 10.59H6.227V3.174h7.546v9.536zm-2.696 2.119H8.923a.532.532 0 00-.537.527c0 .292.24.528.537.528h2.154a.532.532 0 00.537-.528.532.532 0 00-.537-.527z" fill="#fff"/><path d="M10 9.753H8.81a.532.532 0 00-.536.527c0 .292.24.528.536.528h.654v.31c0 .291.24.528.536.528a.532.532 0 00.537-.528v-.395a1.703 1.703 0 001.19-1.612c0-.936-.775-1.697-1.727-1.697a.649.649 0 01-.653-.643c0-.354.293-.642.653-.642h1.19a.532.532 0 00.536-.527.532.532 0 00-.536-.528h-.653v-.31A.532.532 0 0010 4.236a.532.532 0 00-.536.528v.395c-.69.222-1.19.86-1.19 1.612 0 .936.774 1.697 1.726 1.697.36 0 .653.288.653.643a.649.649 0 01-.653.642z" fill="#fff"/></svg>