<svg width="20" height="18" fill="none" xmlns="http://www.w3.org/2000/svg"><g clip-path="url(#clip0)" fill="#fff"><path d="M15.505 2.51C13.9.956 11.767.1 9.5.1S5.1.956 3.495 2.51C1.886 4.07 1 6.143 1 8.35c0 2.27.97 4.444 2.667 6v1.163c0 .398.121.745.35 1.002.236.267.572.413.943.413.206 0 .417-.044.628-.131l1.378-.571c.818.247 1.67.373 2.534.373 2.267 0 4.4-.856 6.005-2.41C17.114 12.628 18 10.555 18 8.348c0-2.206-.886-4.28-2.495-5.839zM9.5 15.603a7.73 7.73 0 01-2.403-.38.498.498 0 00-.345.013l-1.545.64a.662.662 0 01-.247.056c-.245 0-.297-.228-.297-.419v-1.387a.498.498 0 00-.171-.376c-1.586-1.375-2.496-3.344-2.496-5.4 0-4 3.366-7.254 7.504-7.254s7.504 3.254 7.504 7.253c0 4-3.366 7.254-7.504 7.254z"/><path d="M14.097 5.235c-.217 0-.461.098-.77.308l-2.458 1.67-1.724-1.227a1.706 1.706 0 00-2.484.526l-2.12 3.58c-.186.314-.375.72-.177 1.067a.61.61 0 00.54.304c.216 0 .46-.098.77-.308L8.13 9.486l1.724 1.227a1.705 1.705 0 002.484-.526l2.12-3.58c.186-.315.375-.721.177-1.068a.61.61 0 00-.54-.304zM11.482 9.68a.718.718 0 01-.618.365.75.75 0 01-.432-.143L8.426 8.474a.497.497 0 00-.569-.006l-2.002 1.36L7.518 7.02a.719.719 0 01.618-.365c.151 0 .3.05.431.142l2.007 1.428a.5.5 0 00.569.006l2.001-1.36-1.662 2.808z"/></g><defs><clipPath id="clip0"><path fill="#fff" transform="translate(1)" d="M0 0h17v17H0z"/></clipPath></defs></svg>