<svg width="20" height="18" fill="none" xmlns="http://www.w3.org/2000/svg"><g clip-path="url(#clip0)"><path d="M16.788 16.708l2.153-3.983a.504.504 0 00-.007-.486l-5.764-9.96a.502.502 0 00-.43-.25H8.26a.5.5 0 00-.43.25l-5.764 9.96a.504.504 0 00-.007.486l2.153 3.983a.5.5 0 00.44.262h11.697a.5.5 0 00.439-.262zm-11.274-.734l1.725-2.988h10.428l-1.615 2.988H5.514zM8.26 3.523l1.646 2.85-5.242 9.078-1.597-2.955L8.26 3.523zm2.222 3.845l2.67 4.622h-5.34l2.67-4.622zm1.969-4.342l5.187 8.964h-3.337l-3.387-5.866-1.791-3.098h3.328z" fill="#fff"/></g><defs><clipPath id="clip0"><path fill="#fff" transform="translate(2 1)" d="M0 0h17v17H0z"/></clipPath></defs></svg>