<svg width="20" height="18" fill="none" xmlns="http://www.w3.org/2000/svg"><path d="M15.803 2.197A7.451 7.451 0 0010.5 0a7.45 7.45 0 00-5.303 2.197A7.451 7.451 0 003 7.5a7.45 7.45 0 002.197 5.303 7.444 7.444 0 004.788 2.18v2.612l.663-.198a10.326 10.326 0 005.276-3.673A10.256 10.256 0 0018 7.5c0-2.003-.78-3.887-2.197-5.303zm-4.788 13.987v-1.672a.52.52 0 00-.515-.543A6.476 6.476 0 014.03 7.5a6.476 6.476 0 016.47-6.47 6.476 6.476 0 016.469 6.47c0 3.91-2.365 7.317-5.954 8.684z" fill="#fff"/><path d="M12.407 4.665H5.878v5.67h6.53V9.184l2.577 1.546V4.27l-2.578 1.546V4.665zm-1.03 4.64H6.908v-3.61h4.467v3.61zm2.577-3.214v2.818l-1.547-.928V7.02l1.547-.928z" fill="#fff"/></svg>