<svg width="20" height="18" fill="none" xmlns="http://www.w3.org/2000/svg"><path d="M14.746 5.953c-.043 0-.087 0-.13.002C14.122 3.672 11.991 2 9.473 2 6.565 2 4.199 4.217 4.199 6.941v.035C2.394 7.214 1 8.659 1 10.4c0 1.907 1.672 3.459 3.727 3.459h.527v2.47c0 .273.236.494.527.494h8.438c.291 0 .527-.22.527-.494v-2.47c2.346 0 4.254-1.774 4.254-3.953 0-2.18-1.908-3.953-4.254-3.953zm-1.055 9.882H6.31v-3.459l3.375 2.372a.55.55 0 00.632 0l3.375-2.371v3.458zm-6.328-3.953h5.274L10 13.735l-2.637-1.853zm7.383.989v-1.483c0-.268-.233-.494-.527-.494H5.78c-.299 0-.527.231-.527.494v1.483h-.527c-1.474 0-2.672-1.109-2.672-2.471 0-2.207 2.895-3.284 4.536-1.747.206.193.54.193.746 0a.472.472 0 000-.699 3.76 3.76 0 00-2.082-.978l-.001-.035c0-2.18 1.892-3.953 4.219-3.953 2.003 0 3.69 1.313 4.1 3.12a4.263 4.263 0 00-1.81 1.003.472.472 0 000 .699c.206.192.54.192.746 0a3.259 3.259 0 012.237-.869c1.764 0 3.2 1.33 3.2 2.965 0 1.635-1.436 2.965-3.2 2.965z" fill="#fff"/></svg>