<svg width="17" height="17" fill="none" xmlns="http://www.w3.org/2000/svg"><path d="M8.5 13.398a.83.83 0 100-1.66.83.83 0 000 1.66z" fill="#fff"/><path d="M8.5 0A8.495 8.495 0 000 8.5C0 13.198 3.802 17 8.5 17S17 13.198 17 8.5 13.198 0 8.5 0zm0 15.672A7.168 7.168 0 011.328 8.5 7.168 7.168 0 018.5 1.328 7.168 7.168 0 0115.672 8.5 7.168 7.168 0 018.5 15.672z" fill="#fff"/><path d="M8.5 4.267a2.66 2.66 0 00-2.656 2.656.664.664 0 101.328 0A1.33 1.33 0 018.5 5.595a1.33 1.33 0 011.328 1.328A1.33 1.33 0 018.5 8.25a.664.664 0 00-.664.664v1.66a.664.664 0 101.328 0v-1.08a2.661 2.661 0 001.992-2.572A2.66 2.66 0 008.5 4.267z" fill="#fff"/></svg>