<svg width="20" height="18" fill="none" xmlns="http://www.w3.org/2000/svg"><path d="M14.418 18c-.925 0-1.804-.27-2.56-.782a7.81 7.81 0 01-6.899-2.177 7.81 7.81 0 01-2.177-6.898A4.533 4.533 0 012 5.582 4.587 4.587 0 016.582 1c.925 0 1.804.27 2.56.782 5.347-.935 10.014 3.71 9.076 9.075A4.53 4.53 0 0119 13.418 4.587 4.587 0 0114.418 18zm-1.997-2.013a3.22 3.22 0 001.997.685 3.258 3.258 0 003.254-3.254 3.22 3.22 0 00-.685-1.997.664.664 0 01-.125-.547c.996-4.635-3.133-8.725-7.736-7.736a.664.664 0 01-.547-.125 3.221 3.221 0 00-1.997-.685 3.258 3.258 0 00-3.254 3.254c0 .73.237 1.421.685 1.997.12.155.166.355.125.547-.994 4.624 3.123 8.727 7.736 7.736a.664.664 0 01.547.125zm1.355-4.528c0-1.793-2.267-2.341-2.774-2.497-1.051-.323-2.45-.682-2.45-1.421 0-.702.892-1.295 1.948-1.295.84 0 1.606.38 1.863.925a.664.664 0 001.201-.566c-.523-1.109-1.822-1.687-3.064-1.687-1.932 0-3.276 1.256-3.276 2.623 0 1.793 2.267 2.341 2.774 2.497 1.051.323 2.45.682 2.45 1.421 0 .702-.892 1.295-1.948 1.295-.84 0-1.606-.38-1.863-.925a.664.664 0 00-1.201.566c.523 1.109 1.822 1.687 3.064 1.687 1.932 0 3.276-1.257 3.276-2.623z" fill="#fff"/></svg>