<svg width="20" height="18" fill="none" xmlns="http://www.w3.org/2000/svg"><g clip-path="url(#clip0)"><path d="M17.738 2.689a1.104 1.104 0 00-.876-.394c-.194 0-.4.04-.612.122L1.86 7.91c-.763.291-.866.729-.86.963.007.235.134.666.913.914l.014.004 2.985.854 1.615 4.616c.22.63.714 1.02 1.289 1.02.363 0 .72-.152 1.032-.439l1.846-1.7 2.678 2.156h.001l.025.021.008.006c.297.23.622.353.94.353.62 0 1.114-.46 1.257-1.17l2.358-11.642c.095-.467.015-.885-.223-1.177zM5.91 10.483l5.76-2.943-3.586 3.81a.497.497 0 00-.121.222l-.691 2.8-1.361-3.89zm2.262 4.626a.94.94 0 01-.072.06l.642-2.598 1.167.94-1.737 1.598zm8.812-11.44L14.627 15.31c-.023.111-.095.37-.282.37-.092 0-.207-.05-.326-.14l-3.034-2.444-.002-.001-1.805-1.454 5.185-5.51a.498.498 0 00-.589-.785L5.245 9.704 2.22 8.84l14.386-5.492a.731.731 0 01.256-.056c.03 0 .084.004.105.028.026.033.06.143.018.35z" fill="#fff"/></g><defs><clipPath id="clip0"><path fill="#fff" transform="translate(1 1)" d="M0 0h17v17H0z"/></clipPath></defs></svg>