<svg width="20" height="18" fill="none" xmlns="http://www.w3.org/2000/svg"><path d="M11.389 1H8.15A6.157 6.157 0 002 7.15v2.916a6.161 6.161 0 003.885 5.72v1.89a.323.323 0 00.54.24l1.878-1.7h3.086a6.157 6.157 0 006.15-6.15V7.15A6.157 6.157 0 0011.39 1zm5.503 9.066a5.509 5.509 0 01-5.503 5.502h-3.21a.325.325 0 00-.218.084l-1.429 1.294v-1.385a.323.323 0 00-.216-.305 5.514 5.514 0 01-3.669-5.19V7.15a5.509 5.509 0 015.504-5.502h3.238a5.509 5.509 0 015.503 5.502v2.917z" fill="#fff"/><path d="M14.048 10.872l-1.99-1.293a.97.97 0 00-1.343.285l-.093.144c-.862-.285-1.811-.648-2.38-2.294l.236-.204a.973.973 0 00.095-1.37L7.016 4.348a.324.324 0 00-.456-.032l-.978.849c-.857.745-.457 1.848-.325 2.21a.322.322 0 00.022.047c.034.06.845 1.51 2.156 2.844 1.316 1.341 3.692 2.579 3.765 2.615a1.62 1.62 0 002.239-.476l.705-1.086a.325.325 0 00-.096-.448zm-1.152 1.181c-.292.45-.895.577-1.37.27-.024-.012-2.385-1.241-3.629-2.509a14.452 14.452 0 01-2.04-2.684c-.257-.72-.211-1.161.15-1.475l.733-.637 1.344 1.546a.32.32 0 01-.03.457l-.398.345a.323.323 0 00-.097.34c.677 2.2 1.994 2.633 2.956 2.948l.14.046a.323.323 0 00.374-.13l.23-.354a.32.32 0 01.447-.094l1.719 1.116-.53.815zM10.509 6.26a.323.323 0 10-.178.622c.483.138.867.522 1.003 1.005a.324.324 0 00.623-.175A2.116 2.116 0 0010.51 6.26z" fill="#fff"/><path d="M12.973 8.193a.324.324 0 00.312-.411 4.11 4.11 0 00-2.814-2.82.323.323 0 10-.177.623 3.459 3.459 0 012.367 2.372c.04.143.17.236.312.236z" fill="#fff"/><path d="M10.332 3.455a.323.323 0 10-.178.622 5.861 5.861 0 014.01 4.02.324.324 0 00.624-.175 6.513 6.513 0 00-4.456-4.467z" fill="#fff"/></svg>