<svg width="20" height="18" fill="none" xmlns="http://www.w3.org/2000/svg"><path d="M10 0C5.037 0 1 4.037 1 9c0 1.693.47 3.337 1.363 4.764-.356 1.245-.998 3.601-1.005 3.626a.345.345 0 00.436.421l3.568-1.097A8.977 8.977 0 0010 18c4.963 0 9-4.037 9-9s-4.037-9-9-9zm0 17.308a8.287 8.287 0 01-4.407-1.264.346.346 0 00-.285-.038l-3.115.96c.228-.836.64-2.33.878-3.161a.347.347 0 00-.042-.284A8.276 8.276 0 011.692 9C1.692 4.42 5.42.692 10 .692S18.308 4.419 18.308 9c0 4.58-3.727 8.308-8.308 8.308z" fill="#fff"/><path d="M15.88 11.12c-.64-.354-1.184-.71-1.58-.97a8.38 8.38 0 00-.684-.421c-.449-.224-.789-.066-.918.065a.346.346 0 00-.044.052c-.466.7-1.075 1.37-1.253 1.405-.206-.032-1.17-.58-2.128-1.378-.978-.815-1.594-1.596-1.684-2.127.627-.646.853-1.053.853-1.515 0-.477-1.111-2.467-1.313-2.668-.201-.201-.656-.233-1.35-.094a.35.35 0 00-.178.094c-.084.084-2.052 2.09-1.117 4.523 1.027 2.67 3.662 5.772 7.022 6.276.382.057.74.085 1.075.085 1.976 0 3.143-.994 3.471-2.967a.345.345 0 00-.172-.36zm-4.271 2.557c-3.553-.533-5.79-4.053-6.478-5.84-.682-1.772.575-3.352.891-3.71.257-.043.527-.061.64-.044.236.328 1.052 1.87 1.088 2.148 0 .182-.06.435-.764 1.14a.345.345 0 00-.101.245c0 1.812 3.823 4.326 4.5 4.326.588 0 1.356-.99 1.793-1.634.026 0 .068.01.129.04.124.063.34.204.614.382.36.236.84.549 1.405.873-.257 1.236-.975 2.486-3.717 2.074z" fill="#fff"/></svg>