<svg width="20" height="18" fill="none" xmlns="http://www.w3.org/2000/svg"><path d="M16.413 12.63c-.409-1.19-1.35-1.91-2.312-2.26h0c-1.173-.426-2.547-.435-3.985-.066-1.441.367-2.73 1.06-3.739 2.023-.916.874-1.748 2.164-1.763 3.684C2.246 15.703.773 14.38.463 13.054.18 11.837.86 10.336 2.407 8.873 3.935 7.428 6.227 6.106 8.92 5.27h0c1.632-.506 3.283-.788 4.797-.824l2.696 8.184zm0 0c1.098-.825 1.935-1.772 2.476-2.704.619-1.067.827-2.073.65-2.843-.183-.796-.781-1.468-1.781-1.941-1.003-.475-2.383-.733-4.04-.695l2.695 8.184zM12.105 2.335l.02.02a19.396 19.396 0 00-3.942.798 20.285 20.285 0 00-3.406 1.401c.148-.32.277-.656.402-.981l.024-.061c.121-.317.24-.623.37-.92.281-.63.607-1.168 1.096-1.552C7.149.66 7.825.4 8.865.4c.645 0 1.118.125 1.49.307.374.184.666.436.938.722.131.138.254.28.382.429l.016.018c.131.152.269.31.414.458zm-1.65 10.245h.001a6.164 6.164 0 011.616-.203c1.585.023 2.442.719 2.52 1.531v.001c.058.6-.27 1.311-.966 1.977-.688.657-1.687 1.218-2.832 1.512-1.147.293-2.184.253-2.93-.018-.744-.27-1.153-.74-1.208-1.313h0c-.057-.6.27-1.312.968-1.977.687-.657 1.686-1.218 2.832-1.51z" stroke="#fff" stroke-width=".8"/></svg>