<svg width="70" height="70" fill="none" xmlns="http://www.w3.org/2000/svg"><g clip-path="url(#clip0)"><path d="M69.573 67.51L48.276 46.212c4.422-4.911 7.14-11.386 7.14-18.503 0-15.277-12.43-27.708-27.708-27.708C12.431.001 0 12.431 0 27.709c0 15.277 12.43 27.708 27.708 27.708 7.117 0 13.592-2.718 18.503-7.143L67.51 69.572a1.464 1.464 0 002.065.003 1.463 1.463 0 000-2.065zM27.708 52.5c-13.67 0-24.791-11.12-24.791-24.79 0-13.671 11.12-24.792 24.791-24.792 13.67 0 24.791 11.12 24.791 24.791 0 13.67-11.12 24.792-24.79 24.792z" fill="#fff"/></g><defs><clipPath id="clip0"><path fill="#fff" d="M0 0h70v70H0z"/></clipPath></defs></svg>