<svg width="70" height="70" fill="none" xmlns="http://www.w3.org/2000/svg"><path d="M9.686 49.57a.983.983 0 00-1.686.7.995.995 0 00.294.701l2.432 2.445a.984.984 0 001.076.221.983.983 0 00.536-.538.995.995 0 00-.22-1.083L9.686 49.57z" fill="#fff"/><path d="M12.307 32.438a1.066 1.066 0 001.502-.01 1.078 1.078 0 00.01-1.511L2.585 19.62l3.682-3.662 3.041 3.058 13.87 13.947-21.957 22.08a2.869 2.869 0 00-.835 2.028 2.881 2.881 0 00.835 2.027l10.007 10.064a2.847 2.847 0 004.033 0l21.957-22.08L53.048 63a1.062 1.062 0 00.191.15c.046.03.094.055.144.076l.023.011c.046.019.094.034.142.046l11.424 2.83a1.063 1.063 0 001.012-.283 1.078 1.078 0 00.282-1.017l-2.815-11.489a1.097 1.097 0 00-.045-.143l-.011-.023a1.081 1.081 0 00-.105-.189 1.072 1.072 0 00-.12-.148L47.34 36.903l21.825-21.946A2.867 2.867 0 0070 12.93a2.882 2.882 0 00-.835-2.028L59.158.838a2.847 2.847 0 00-4.033 0l-5.737 5.769-16.087 16.178-17.65-17.75a1.066 1.066 0 00-1.513 0l-.523.526-1.449-1.48a5.314 5.314 0 00-3.814-1.61H8.35a5.333 5.333 0 00-2.975.908 5.378 5.378 0 00-1.972 2.417 5.412 5.412 0 001.16 5.867l1.484 1.49-5.729 5.698a1.077 1.077 0 00-.004 1.525l11.994 12.062zm48.594 21.144l-7.097 7.137-42.227-42.463 7.097-7.138 42.227 42.464zM13.75 67.642a.712.712 0 01-1.008 0L2.733 57.579a.717.717 0 010-1.014l14.965-15.049 4.777 4.803a1.07 1.07 0 001.17.24 1.07 1.07 0 00.661-.998 1.08 1.08 0 00-.32-.763l-4.776-4.803 5.48-5.51L35.707 45.56 13.75 67.641zm42.152-5.99l5.928-5.962 1.938 7.91-7.866-1.948zM39.329 19.764l4.776 4.803a1.068 1.068 0 001.519.006 1.078 1.078 0 00-.007-1.526l-4.776-4.804 9.303-9.355 2.827 2.843a1.07 1.07 0 001.172.245 1.069 1.069 0 00.584-.587 1.081 1.081 0 00-.244-1.179l-2.827-2.842 4.98-5.009a.712.712 0 011.01 0l10.007 10.063a.72.72 0 010 1.014L45.828 35.383 34.813 24.306l4.516-4.542zM17.162 9.598l-7.097 7.137-2.269-2.281 7.098-7.137 2.268 2.28zm-11.086.545a3.24 3.24 0 01-.697-3.524 3.23 3.23 0 011.184-1.451 3.203 3.203 0 011.786-.545h.003a3.177 3.177 0 012.29.966l1.461 1.493-4.336 4.36-.201.2-1.49-1.5z" fill="#fff"/></svg>