<svg width="70" height="70" fill="none" xmlns="http://www.w3.org/2000/svg"><g clip-path="url(#clip0)"><path d="M18.726 27.165h-5.063c-1.198 0-2.17-.702-2.17-1.568 0-.865.972-1.567 2.17-1.567h5.063c1.197 0 2.17.702 2.17 1.567 0 .866-.973 1.568-2.17 1.568zm-3.135 30.299h-5.063c-1.198 0-2.17-.703-2.17-1.568 0-.865.972-1.568 2.17-1.568h5.063c1.198 0 2.17.703 2.17 1.568 0 .865-.972 1.568-2.17 1.568zm16.732-24.03H13.647c-1.19 0-2.154-.703-2.154-1.568 0-.865.965-1.567 2.154-1.567h18.676c1.19 0 2.155.702 2.155 1.567s-.966 1.568-2.155 1.568zm26.119 8.358h-41.66c-1.19 0-2.155-.702-2.155-1.568 0-.865.965-1.567 2.155-1.567h41.66c1.19 0 2.155.702 2.155 1.567 0 .866-.965 1.568-2.155 1.568zM32.323 50.15H13.647c-1.19 0-2.154-.702-2.154-1.567 0-.866.965-1.568 2.154-1.568h18.676c1.19 0 2.155.702 2.155 1.568 0 .865-.966 1.567-2.155 1.567z" fill="#fff"/><path d="M67.911 15.15v-.279m0 0V9.403c-.174-1.393-1.254-4.18-4.18-4.18H7.315c-1.741 0-5.224 1.046-5.224 5.225v49.104c0 1.742 1.045 5.224 5.224 5.224h55.373c1.741-.174 5.224-1.463 5.224-5.224v-44.68zm-65.744.279h65.837" stroke="#fff" stroke-width="3"/></g><defs><clipPath id="clip0"><path fill="#fff" d="M0 0h70v70H0z"/></clipPath></defs></svg>