<svg width="70" height="70" fill="none" xmlns="http://www.w3.org/2000/svg"><path d="M68.633 33.633H64.8a1.367 1.367 0 000 2.734h3.833a1.367 1.367 0 000-2.734zm-.139-7.299a1.367 1.367 0 00-1.868-.5l-2.51 1.448a1.367 1.367 0 101.367 2.368l2.51-1.449a1.367 1.367 0 00.5-1.867zm-.501 15.465l-2.51-1.45a1.367 1.367 0 10-1.367 2.369l2.51 1.449a1.367 1.367 0 101.367-2.368zm-9.979-25.665c-1.35-5.887-3.177-8.75-5.587-8.75a2.9 2.9 0 00-1.326.32L.838 28.817c-.508.213-.838.71-.838 1.26v9.844c0 .55.33 1.047.838 1.26l7.373 3.098.013.005 3.533 1.484v8.577a3.9 3.9 0 003.896 3.896h12.44a3.9 3.9 0 003.897-3.896v-.078l19.113 8.03c.42.212.862.319 1.325.319 2.41 0 4.236-2.862 5.586-8.75C59.172 48.81 59.81 42.111 59.81 35c0-7.111-.638-13.81-1.797-18.866zm-28.759 38.21c0 .64-.52 1.162-1.162 1.162h-12.44c-.64 0-1.162-.521-1.162-1.162v-7.428l14.765 6.202v1.226zM10.117 42.112v-7.134a1.367 1.367 0 00-2.734 0v5.986L2.734 39.01v-8.026l45.339-19.043c-.449 1.169-.858 2.565-1.231 4.192a39.17 39.17 0 00-.125.562l-15.5 5.834a1.367 1.367 0 10.962 2.558l13.953-5.251c-.706 4.431-1.087 9.674-1.087 15.163 0 7.11.638 13.81 1.797 18.865.373 1.628.783 3.023 1.23 4.192L10.117 42.112zm37.775-12.147a5.134 5.134 0 014.263 5.052 5.134 5.134 0 01-4.262 5.052 112.676 112.676 0 01-.002-10.105zm7.457 23.29c-1.248 5.447-2.642 6.626-2.92 6.626a.159.159 0 01-.04-.007c-.023-.01-.044-.023-.067-.032l-.033-.014c-.458-.276-1.677-1.754-2.781-6.573-.68-2.968-1.173-6.54-1.455-10.446 3.852-.504 6.836-3.805 6.836-7.792 0-3.988-2.985-7.289-6.838-7.792.28-3.919.775-7.504 1.457-10.48 1.104-4.817 2.321-6.295 2.78-6.573l.121-.05.02-.003c.278 0 1.672 1.18 2.92 6.626 1.114 4.86 1.728 11.343 1.728 18.255 0 6.911-.614 13.394-1.728 18.255z" fill="#fff"/><path d="M27.276 25.476a1.367 1.367 0 00-1.76-.8l-.03.011a1.367 1.367 0 00.958 2.56l.031-.011a1.367 1.367 0 00.801-1.76z" fill="#fff"/></svg>