<svg width="611" height="73" fill="none" xmlns="http://www.w3.org/2000/svg"><path d="M29.395 21.99h2.758L17.944 57h-2.246L1.172 21.99h2.783l12.89 31.177 12.55-31.177zM50.21 54.607h16.528V57H47.672V21.99h2.539v32.617zM107.258 57l-4.102-9.57H84.675L80.647 57H77.96l14.673-35.01h2.27L109.992 57h-2.734zM93.806 25.53L85.65 45.086h16.529L93.806 25.53zm42.252-3.54c3.385 0 6.429.749 9.13 2.246 2.719 1.498 4.834 3.581 6.348 6.25 1.514 2.653 2.271 5.648 2.271 8.985 0 3.336-.765 6.347-2.295 9.033-1.514 2.67-3.622 4.753-6.324 6.25-2.701 1.497-5.745 2.246-9.13 2.246h-10.767V21.99h10.767zm-.074 32.642c2.914 0 5.534-.651 7.862-1.953 2.327-1.302 4.142-3.109 5.444-5.42 1.302-2.311 1.953-4.907 1.953-7.788 0-2.881-.651-5.469-1.953-7.764s-3.117-4.085-5.444-5.371c-2.311-1.302-4.932-1.953-7.862-1.953h-8.154v30.249h8.154zM170.619 57V21.99h2.539V57h-2.539zm61.588 0h-2.563l-5.274-30.42-12.964 29.053h-.805l-12.94-29.004L192.339 57h-2.564l6.104-35.01h2.344l12.744 28.882 12.817-28.882h2.393l6.03 35.01zm16.666 0V21.99h2.539V57h-2.539zm43.009 0l-8.74-14.722h-9.839V57h-2.539V21.99h12.89c3.142 0 5.738.96 7.788 2.881 2.067 1.904 3.101 4.338 3.101 7.3 0 2.555-.806 4.744-2.417 6.567-1.595 1.807-3.687 2.93-6.274 3.37L294.738 57h-2.856zm-18.579-32.593v15.479h10.254c2.474 0 4.492-.716 6.054-2.149 1.579-1.448 2.368-3.304 2.368-5.566s-.789-4.118-2.368-5.566c-1.562-1.465-3.58-2.198-6.054-2.198h-10.254zm83.722-2.417h2.759L345.575 57h-2.246l-14.526-35.01h2.783l12.891 31.177 12.548-31.177zm40.006 34.18c-2.246.911-4.663 1.367-7.251 1.367s-5.013-.456-7.275-1.367c-2.246-.928-4.167-2.19-5.762-3.784-1.579-1.595-2.824-3.5-3.735-5.713-.912-2.23-1.367-4.614-1.367-7.154 0-3.401.773-6.477 2.319-9.228 1.546-2.75 3.703-4.907 6.47-6.47 2.767-1.579 5.883-2.368 9.35-2.368 3.467 0 6.584.79 9.351 2.368 2.767 1.563 4.923 3.72 6.47 6.47 1.546 2.75 2.319 5.827 2.319 9.229 0 2.539-.456 4.923-1.367 7.153-.912 2.23-2.165 4.142-3.76 5.737-1.579 1.579-3.499 2.832-5.762 3.76zm-15.283-3.125c2.393 1.35 5.07 2.026 8.032 2.026 2.963 0 5.632-.675 8.008-2.026 2.393-1.351 4.248-3.206 5.566-5.567 1.335-2.376 2.002-5.029 2.002-7.959 0-2.197-.39-4.256-1.171-6.176-.782-1.937-1.856-3.59-3.223-4.956-1.367-1.384-3.019-2.474-4.956-3.272-1.921-.797-3.996-1.196-6.226-1.196-2.213 0-4.288.399-6.225 1.196-1.937.798-3.589 1.888-4.956 3.272-1.368 1.383-2.442 3.043-3.223 4.98-.781 1.92-1.172 3.972-1.172 6.153 0 2.913.659 5.558 1.978 7.934 1.334 2.36 3.19 4.224 5.566 5.59zm45.523 1.562H443.8V57h-19.068V21.99h2.539v32.617zm52.213 1.563c-2.246.911-4.663 1.367-7.251 1.367-2.587 0-5.013-.456-7.275-1.367-2.246-.928-4.167-2.19-5.762-3.784-1.578-1.595-2.824-3.5-3.735-5.713-.912-2.23-1.367-4.614-1.367-7.154 0-3.401.773-6.477 2.319-9.228 1.546-2.75 3.703-4.907 6.47-6.47 2.767-1.579 5.884-2.368 9.35-2.368 3.467 0 6.584.79 9.351 2.368 2.767 1.563 4.923 3.72 6.47 6.47 1.546 2.75 2.319 5.827 2.319 9.229 0 2.539-.456 4.923-1.367 7.153-.912 2.23-2.165 4.142-3.76 5.737-1.579 1.579-3.499 2.832-5.762 3.76zm-15.283-3.125c2.393 1.35 5.07 2.026 8.032 2.026 2.963 0 5.632-.675 8.008-2.026 2.393-1.351 4.248-3.206 5.567-5.567 1.334-2.376 2.002-5.029 2.002-7.959 0-2.197-.391-4.256-1.172-6.176-.782-1.937-1.856-3.59-3.223-4.956-1.367-1.384-3.019-2.474-4.956-3.272-1.921-.797-3.996-1.196-6.226-1.196-2.213 0-4.288.399-6.225 1.196-1.937.798-3.589 1.888-4.956 3.272-1.367 1.383-2.442 3.043-3.223 4.98-.781 1.92-1.172 3.972-1.172 6.153 0 2.913.659 5.558 1.978 7.934 1.334 2.36 3.19 4.224 5.566 5.59zm56.486-12.769h18.847c-.081 2.507-.569 4.826-1.465 6.958-.879 2.133-2.075 3.956-3.589 5.47-1.497 1.496-3.304 2.668-5.419 3.515-2.1.846-4.371 1.27-6.812 1.27-3.369 0-6.396-.774-9.082-2.32-2.669-1.546-4.753-3.687-6.25-6.421-1.481-2.734-2.222-5.81-2.222-9.228s.757-6.495 2.271-9.229c1.513-2.75 3.605-4.9 6.274-6.445 2.67-1.547 5.656-2.32 8.96-2.32 4.118 0 7.748 1.172 10.889 3.516 3.141 2.327 5.094 5.306 5.859 8.935h-2.588c-.748-2.93-2.433-5.322-5.053-7.177-2.621-1.872-5.64-2.808-9.058-2.808-2.848 0-5.42.668-7.715 2.002-2.278 1.319-4.061 3.166-5.346 5.542-1.286 2.36-1.929 5.021-1.929 7.983 0 4.558 1.391 8.285 4.175 11.182 2.799 2.881 6.404 4.322 10.815 4.322 3.89 0 7.17-1.132 9.839-3.394 2.669-2.279 4.248-5.257 4.736-8.936h-16.137v-2.417zM556.127 57V21.99h2.539V57h-2.539zm46.378-35.01h2.466V57h-2.149l-22.314-30.566V57h-2.49V21.99h2.294l22.193 30.42V21.99z" fill="#fff"/><path d="M484 1l-8 12" stroke="#fff" stroke-width="2.5"/></svg>