<svg width="1260" height="649" fill="none" xmlns="http://www.w3.org/2000/svg"><g clip-path="url(#clip0)" fill-rule="evenodd" clip-rule="evenodd"><path d="M1000.35 129.337l-1.035 2.921 2.585 1.717 2.93-1.717-1.03-3.606-3.45.685zm-246.562 77.999l4.724 3.739 2.169-3.411.723-2.819-2.627-1.639-3.152-.46-1.837 4.59zm-9.192 11.085l1.508 1.9 5.251-3.214-1.181-3.147-3.283-.131-1.837 2.82-.458 1.772zm116.328-48.718l7.928 1.029.344 3.952-3.102.859-3.617-2.235-1.553-3.605zm20.853-13.055l1.379 6.354h3.275l.689-5.667-3.275-2.748-2.068 2.061zm7.237 5.324v7.215l8.1-1.717 7.585-3.952-2.583-5.841-5.002-.686-3.79-.859-2.758 4.124-1.552 1.716zm2.587-40.191l2.415 5.152 15.508.171 4.483-8.245-2.933-6.355-3.273 3.609-6.377-.516-1.723 2.918h-3.446l-.516 3.436-4.138-.17zm-6.033-25.767l-1.032 3.78 3.103.687 1.202-3.264-3.273-1.203zm-8.272 33.323l3.623 5.497 6.72 1.375.171-7.732-2.242-3.778-7.927-.513-4.135 2.918-6.375-1.031-.518 4.295 3.79 3.952-2.065 2.405-6.035-4.983-7.24.688-.515 5.84.691 6.011 3.27 4.123 1.208 4.636 6.721 1.89 6.204-.515-.515-6.527 4.483.516 3.446-5.669 4.133.858 2.758-3.09-2.758-2.749-6.029-1.717-4.825-5.669 3.961-1.031zm-30.333 14.428l1.036 4.639 4.134 4.808 2.586-1.029-3.102-5.669-4.654-2.749zm178.837-10.216l-2.09 4.037-11.27 6.328-8.19-7.758-8.191-.815-11.679 7.553-7.985 9.799-2.87 10.001-5.322 1.633-6.558-3.266-6.347.612-3.278 4.288-2.868-2.451-2.663 2.861-3.273-3.064 4.706-4.695-11.058-.817-6.35 5.512 3.482 11.84-6.35 6.123v-9.185h-4.301l-4.301 3.878-1.023-4.696 6.35-5.716-6.761.41-20.073 10.206 3.892 4.694-5.734 5.513 2.252 4.082 4.098-2.043.41 5.923 4.914 5.715-7.58 1.836-2.252 3.064 2.05 4.897-6.143 1.022-8.194-2.45-2.458 9.184-13.93-2.449v20.413l-9.829-1.631-15.159-13.677 5.531-3.879-9.214-13.677-5.942-2.857-9.012 3.06-10.034-3.877-1.436 15.514-18.227 7.756-6.964-4.696 1.022-3.672-18.637-.205-4.917 6.533-1.23 4.288-1.226-6.329-3.485-3.064-4.094 4.288-5.68 2.829-.314 3.89 2.654 3.525.052.072.018.086 1.204 6.288 8.778 12.373.07.1v8.174l4.478 5.355.251.297-.304.244-10.229 8.095-.59 4.697-.014.091-.049.075-2.396 3.583-1.807 8.722-.074.342-.344-.042-5.015-.588-8.096 6.573-.03.025-.036.019-2.72 1.398 6.421 9.783.054.083.009.095 2.18 27.346.014.158-.11.125-5.646 6.221 3.724 2.857.19.144-1.57 7.5 3.302 3.589.096.107v5.229l3.893 2.684.241.17-.1.279-1.875 4.966-.021.066-.041.049-5.851 7.059-.563 5.054h9.68l.106.085 4.148 3.245 4.445-2.953.292-.192.221.272 2.493 3.104.198.255-.016.019 3.266 4.931.21.322-.326.209-3.702 2.346v4.366l4.099.316 3.416-2.385.357-.245.198.382 4.235 8.091.047.086-.003.103-.345 9.613 5.443 3.054.251.14-.066.281-2.441 10.071 3.055 6.759 6.893 2.06.403.123-.166.391-5.266 12.255-1.045 15.244 5.296 5.61 5.73-4.367.091-.07.126-.005 8.606-.341 3.071-5.448.246-.433.358.35 4.649 4.634 6.051-7.031 9.506-20.354.083-.18.197-.034 6.357-1.056.107-.017.095.041 12.352 4.923.165.065.057.168 2.687 8.041 7.382-3.347.194-.087.181.122 4.588 3.167.086.061.046.098 8.311 18.785 10.8 19.952 6.798-4.43.03-.022.034-.013 7.061-2.816.206-.083.177.139 5.393 4.371 2.931-2.601.261-.227.254.232 4.32 3.975 3.976-3.961.114-.119.167.005 9.88.355.127.004.099.076 6.183 4.791 12.152-4.497.209-.074.168.139 4.05 3.366 16.724-7.64.114-.056.123.027 4.829 1.032 5.251-1.96-.653-3.913-.049-.272.246-.128 12.939-6.706-3.235-9.092-.079-.214.159-.169 4.346-4.642-1.799-4.48-8.276-5.394-.287-.188.16-.303 4.353-8.376-8.1-5.586-.348-.242.277-.318 3.774-4.391v-18.741l.246-.096 15.883-6.014.621-7.15.032-.324.325-.024 9.417-.622 2.146-5.799-.32-6.021-.01-.255 4.77-2.219-3.42-12.08-6.329-4.42-.224-.153.073-.26 4.15-14.652-5.749-15.296-.075-.198.127-.164 3.222-4.176.168-.217.255.089 11.182 3.817 7.13-1.545 2.5-4.349.09-.159.19-.027 8.45-1.25 1.51-5.403-14.07-29.084-.05-.116.02-.122 1.42-7.111.04-.147.12-.089 9.43-6.634-3.56-6.815-.13-.255.21-.197 9.13-8.532.1-.09.12-.012 8.14-.838 4.66-5.2.83-9.072-5.28-4.706-.12-.108-.01-.158-.28-5.864-3.37-5.034-.17-.269.24-.221 4.01-3.734-4.33-5.13-.24-.276.27-.246 10.56-9.669.05-.047.06-.024 4.75-1.948 3.52-5.131-6.65-13.806h-8.4l-.07-.031-6.57-2.843-.14-.066-.06-.147-3.42-8.817-.09-.211.15-.17 13.32-15.537v-7.634l-17.42-13.026zm20.67-101.712l8.83 10.433 1.93-1.926 2.41-12.035 2.89-5.617-3.21-4.334-8.03.641-4.82 7.222v5.616z" fill="#fff"/><path d="M1182.81 136.825l-2.01-22.102-6.14-3.469 14.54-10.004-2.05-6.735-27.04-2.248-3.27 4.289-7.38.611-.81 5.716-5.94-.408v-7.96l6.75-2.248 2.67-5.509-1.44-14.494-2.66-1.02-3.28 2.04-.2-5.306-6.35 2.447-4.3-4.898 1.64-7.962 5.32 4.697 3.07-2.45 4.51 4.899 2.66-6.124-.61-7.349 4.91-4.083 8.61.818 14.33-10.819-3.48-4.085 7.17 1.021-.2-6.94-7.78 1.43-2.26-4.898-10.45-2.043 4.1-5.103-5.33-3.878 4.92-3.47-6.15-7.964-17.4 10.208-1.03 8.37-4.71 6.124 11.68 4.694-6.35 2.859-18.85-5.103-21.91 14.492-32.77 17.76-8.81 14.29.82 4.285-5.94 1.633-8.4 7.555 5.94 7.348 5.33-1.632 7.99 4.491-.82 7.962-7.37.814-4.92 2.857-10.45-6.532v13.27l-10.65 7.963-4.11 7.935 17.68 13.216.15.114v8.29l-.09.108-13.26 15.471 3.28 8.456 6.35 2.748h8.72l.1.219 3.34 6.924 5.51.826.18.027.09.162 3.53 6.232 7.39-3.542.14-.066.14.046 6.93 2.208 5.26-4.689.1-.089.13-.009 8.13-.558 6.04-6.293-1.11-6.068-.06-.327.32-.103 6.08-1.928 1.66-5.777.07-.247.25-.027 5.18-.544 1.64-4.887.06-.202.21-.047 9.54-2.238 2.49-4.404.1-.179.21-.014 14.26-.854.29-.016.09.266 3.3 9.047 9.93-3.023.06-.019.06.002 10.85.278 8.76-25.05.14-.416.4.204 5.28 2.772 6.76-2.042zm67.03 112.1l3.19 3.176 6.21-5.081-2.71-.636-6.69 2.541zm-26.71 134.021l.5 2.385 3.09 1.986 1.49-3.774-1.69-2.78-3.39 2.183zm9.76-4.563l-.5 2.283 3.39 1.287 1.79-1.985-3.29-2.877-1.39 1.292zm-2.09 4.963l-.8 9.429 3.69 4.766 3.38-1.59-.69-9.328-2.69-2.482-2.89-.795zm5.28 20.94l-.5 3.475 1.59 3.475 4.38-1.986.6-2.28-6.07-2.684zm5.63 27.593l-1.63 3.114 2.45 3.521 2.99-2.839-1.9-3.529-1.91-.267zm.28 17.481l1.63 2.71 2.31-.812.54-4.341-2.99-.676-1.49 3.119zm2.03 7.045l-2.44 2.572 1.9 5.153 5.71-1.493-1.9-5.284-3.27-.948zm-3.81 21.411l-2.85 2.846.27 12.196.14 2.848h2.99l2.45-7.05-.54-6.909-2.46-3.931zm-8.56 23.309l2.99.136.95 3.927-2.17 3.39-2.86 4.065-.27 4.469-.82 5.557-.54 4.203-1.36-.675-1.09-7.318-.27-9.084 3.68-3.794 2.04-1.761-.28-3.115zm-10.79 48.489l1.48-.649.59-10.589 1.83-2.117.35-2.767-1.94-1.234-3.01 1.409-1.65 1.295 1.47 4.648-.53 6.004 1.41 4zm11.2-10.65l1 2.291 3-1.057-.64-3.176-1.65-2.296-1.65 1.589-.06 2.649zm-57.75-311.162l-2.39 7.147 9.08 10.163 1.28-14.609-4.94-2.224-3.03-.477zm59.92 26.681l2.38 3.653 9.09 1.43 3.66-1.905-2.23-3.813-6.69-.794-6.21 1.429z" fill="#fff"/><path d="M1069.22 334.911l5.48-3.604 3.69-3.063 5.12-1.225-1.64-10.409 9.02-2.858 6.96-6.124 6.35-.205-4.71 6.738 4.51 3.879 6.55-7.35 1.64-11.635 5.94-2.246 4.71-6.124-4.92-3.675-4.3 5.309-4.5-4.288-1.23-21.026-3.89-12.452 1.22-9.187 7.58-10.819 4.3-.202 2.05-6.124 8.81 12.045 6.15-1.023.4-4.491-1.43-9.186-1.56-6.468-5.91-3.325-.16-.088-.03-.172-1.13-5.895-3.81-3.525-6.15.556-.29.027-.1-.269-3.67-9.55-5.25-1.101-.16-.033-8.51-12.334-5.96 6.202-.1.109-.15.01-8.14.56-5.32 4.746-.17.145-.21-.067-6.99-2.228-7.56 3.632-.32.154-.18-.312-3.62-6.375-4.81-.721 3.11 6.463.1.199-.13.18-3.71 5.404-.06.093-.11.043-4.78 1.966-10.25 9.379 4.57 5.401-.26.246-4.05 3.761 3.25 4.851.06.084v.108l.28 5.816 5.3 4.728.14.125-.01.191-.86 9.384-.01.127-.08.094-4.86 5.403-.09.109-.15.016-8.15.84-8.82 8.246 3.57 6.854.15.296-.27.192-9.58 6.736-1.37 6.84 13.88 28.702 6.4-4.253.16-.103.17.061 14.5 4.817.21.07.05.215 1.61 8.025.02.135-.06.122-3.45 6.25 2.61 5.196 5.75-4.228.11-.073h7.75l.11.191 3.65 6.365zm11.19 247.534l-.79 23.829 4.3 7.347-16.79 1.432-5.53 12.044 15.56 15.921.41 5.921 8.6-8.165 14.75.202 10.65-8.573 6.35-12.655 3.08-34.707 4.3-18.165-2.86-21.258-4.21-1.19-.23-.061-.05-.23-1.02-5.085-7-4.984-7.84 5.858 4.66 5.024 7.41.62.4.031-.05.399-1.69 11.511-.04.316-.32.01-5.26.198.8 7.338.02.23-.19.126-7.56 5.025-.08.053-.11.01-12.42.824-3.12 4.072 2.41 4.809.23.435-.48.106-6.29 1.382z" fill="#fff"/><path d="M1073.55 556.764l5.46 8.886-2.05 6.537 3.33 9.503 5.77-1.265-2.3-4.584-.11-.215.15-.185 3.35-4.398.11-.14.17-.008 12.5-.831 7.28-4.84-.85-7.919.4-.017 5.35-.199 1.58-10.795-7.15-.598-.15-.012-.1-.106-5.04-5.441-.29-.313.34-.25 8.4-6.281.23-.167.22.163 7.35 5.231.12.087.03.151 1.01 5.002 3.75 1.059 1.86-24.079-2.66-7.55-11.88-24.085-3.89-4.696-3.48-16.944-2.37-5.637-.84-.913-8.88-3.658-3.07-3.672 2.66-5.311-6.55-2.652-13.72-2.45-10.65 5.511-3.69 16.129-4.51-5.72-5.12 6.537-4.3-12.453-9.01 5.509-7.58-1.223.41-7.145 9.83-24.495 2.46-24.494 2.87-11.842-2.46-9.799 3.27-8.775-1.43-9.391 20.69-20.21 6.55 1.222.62-2.448-1.84-2.857 2.88-1.897-3.56-6.216h-7.07l-6.02 4.421-.36.266-.2-.402-2.9-5.782-.09-.176.1-.176 3.47-6.297-1.54-7.679-14.11-4.687-6.49 4.315-1.57 5.644-.07.238-.25.037-8.51 1.256-2.48 4.337-.09.147-.17.032-7.41 1.608-.1.02-.1-.032-11.019-3.763-2.925 3.786 5.724 15.216.04.119-.03.116-4.113 14.516 6.223 4.338.11.08.04.126 3.54 12.527.09.308-.29.136-4.61 2.138.31 5.845.01.08-.03.07-2.255 6.101-.085.233-.246.017-9.338.62-.616 7.063-.022.237-.226.084-15.859 6.007v18.5l-.095.107-3.591 4.175 8.029 5.539.278.194-4.508 8.661 8.087 5.27.102.066 1.978 4.927.088.226-.163.175-4.354 4.646 3.125 8.776 12.845-6.659.256-.134.202.213 4.235 4.572.173.185-.11.234-6.306 13.625.695 6.579.024.245-.212.122-4.737 2.698.317 5.384h10.779l.12.166 4.82 7.21 5.29-.33 8.64-7.92 1.38-5.867.07-.294h6.77l2.02-4.012.12-.245.27.04 4.59.703.23.034.08.23 4.23 13.013.08.22-.17.161-2.82 2.817-.09.083-.12.022-10.44 1.678 2.6 5.522.11.231-.17.189-4.16 4.49-1.04 5.871-.02.102-.07.079-6.14 7.15 2.62 3.273.18.227-.17.233-4.16 5.525v6.676l11.09 5.522.08.044.05.075 8.92 12.311 5.58-5.275.12-.106.15.004 11.97.207.13.004.1.079 5.3 4.264 15.97-5.375.66-.22-.17.672-1.67 6.75z" fill="#fff"/><path d="M1028.23 567.842l6.13 9.649 6.55 5.716 13.93-6.734 1.84-5.719 10.45-11.635 5.7-2.605 1.49-6.007-15.52 5.217-.19.07-.16-.131-5.36-4.313-11.69-.207-5.75 5.438-7.42 11.261zm-111.471-36.275l13.957-7.15 10.653 3.672 12.903-2.038 18.843 18.574 23.349 24.087 9.216-3.672 5.74 2.654 4.09-2.044 7.79 2.45 4.21-.547 7.39-11.21-8.97-12.376-11.21-5.582-.21-.111v-7.392l.08-.102 4.05-5.392-2.64-3.29-.19-.246.2-.237 6.29-7.304 1.04-5.877.02-.114.07-.079 4.06-4.389-2.71-5.744-.22-.456.5-.08 10.82-1.739 2.57-2.565-4.09-12.565-4.08-.629-1.99 3.969-.1.216h-6.64l-1.35 5.684-.02.115-.09.078-8.82 8.091-.11.086-.13.01-5.65.356-.21.014-.13-.184-4.82-7.218h-11.098l-.022-.359-.353-5.977-.013-.24.203-.112 4.729-2.693-.682-6.435-.01-.105.044-.092 6.245-13.489-3.865-4.172-25.965 13.458.66 3.948.054.308-.297.109-5.644 2.108-.107.041-.105-.023-4.822-1.028-16.821 7.682-.221.101-.18-.153-4.068-3.379-12.145 4.497-.203.075-.162-.131-6.259-4.848-9.589-.339-4.121 4.103-.255.258-.269-.25-4.337-3.983-2.917 2.582-.241.216-.251-.207-5.475-4.427-6.812 2.713-6.629 4.327 8.379 5.566.325.218-.225.32-2.499 3.484 3.864 3.852 6.994-3.873.331-.185.19.33 3.345 5.902 5.364-1.268.431-.105.035.447.789 10.497 5.463 3.115.363.206-.237.341-3.072 4.337 8.702 13.008zm183.231-69.739l-.29-.692 12.08 6.535 3.89 10.203 5.94 7.553 7.17 11.433 5.12 8.367 5.94 4.493 1.84 5.306 1.64 4.696 7.37 3.471 1.03 7.347 7.58 9.597.61-8.371-1.03-6.331 5.95-.406 2.25-1.02 5.53 2.859-4.51-9.391h-6.55l-6.97-3.061-7.98-5.719-5.12-13.061-2.87-8.373 6.14-3.47 11.47-.609-25.8-17.354-18.23-16.329-8.4-15.72-11.47-7.959-5.32-6.738-3.69 1.634-.82 3.88 6.76 4.694 3.69 5.511-2.05 2.653-3.28-.817-1.02 4.697 6.55 4.896 6.56 14.904-.55-.221.84.913zm-979.81-90.279l1.71 3.24-.293 7.52 5.213 2.776.025.013 3.77 2.416 3.49-2.407.107-.075.13.01 5.288.276 5.55-3.379.604-4.212.052-.367.373.047 6.204.825 3.275-1.022.309-.093.145.287 2.446 4.879 5.514 1.958 1.222-1.084.374-6.132-3.543-2.657-.143-.106-.013-.175-.254-3.957-2.253-2.122-3.435-2.507-.169-.123.012-.207.386-6.027-6.866-5.3-.12-.097-.023-.15-.631-4.036-2.605-1.239-.218-.103v-2.788l-1.042-1.852-3.897-.235-.691 1.608-.08.191-.207.033-1.591.266-.22.037-.138-.174-1.079-1.313h-1.664l-2.546 2.3v4.457l-.074.102-1.505 2.081 1.292.968.142.105.01.175.135 2.119.023.421-.422-.017-2.821-.122-1.136 1.927.808 4.028-.141.144-8.789 8.869z" fill="#fff"/><path d="M106.825 330.3l-2.957 3.661-1.433 2.246.614 3.06 3.07 1.43-.408 4.696 7.783 4.9.204 8.979 6.11 11.574 8.475-8.557-.758-3.772-.027-.141.074-.126 1.326-2.254.116-.197.229.011 2.625.116-.094-1.525-1.451-1.084-.297-.225.218-.302 1.65-2.282v-4.23l-5.643-5.763-5.588-1.168-.07-.015-.063-.04-3.978-2.647-.114-.077-.039-.133-.994-3.346-2.018-.337-2.005 1.126-.231.13-.204-.172-4.122-3.536z" fill="#fff"/><path d="M112.173 310.46l-3.389 1.456-1.639 3.265-2.46.615-.205 4.08 3.485 2.044-.849 7.628 4.125 3.538 1.888-1.062.117-.064.132.022 2.387.397.235.039.069.23 1.023 3.442 3.799 2.53 5.628 1.175.113.025.082.084 5.578 5.696 2.514-2.271.11-.099h2.311l.116.139 1.055 1.288 1.164-.194.631-1.466-2.52-3.398-.069-.089-.01-.111-.243-3.317-2.671-.851-.161-.05-.071-.152-.795-1.718-.035-.08v-2.865l-1.247-1.619-.079-.104v-6.092l-8.961-11.671-11.158-.42zm12.691-27.272l-5.635-.463-4.095-3.879.408-3.675-3.89-.816-2.256 5.511-8.191 6.939.615 4.493 4.299-.204 3.277 2.653 1.23 5.716 3.687-.409 4.301.817v2.857l-5.347 7.012 10.141.385 12.625-9.211-.998-1.63-.058-.093v-2.296l.113-.111 1.502-1.5.034-.03.042-.026 2.145-1.261-.244-1.693-2.552-.183-1.388 1.088-.204.156-.22-.125-2.256-1.285-.096-.055-.054-.1-1.396-2.676-.038-.072-.003-.087-.11-2.462-.001-.108.055-.097 1.305-2.253-6.047-.389-.112-.007-.091-.067-.497-.364z" fill="#fff"/><path d="M142.678 248.63l-.919 1.637-6.76 3.878-3.482 5.513-3.686 7.552-.408 6.122 1.023 3.677-2.663 3.265-.166 2.524.105.077 6.454.414 2.602-1.14.073-.033h.087l5.109.107 2.788-2.571.119-.111.159.009 3.758.214.27.014.073.258 1.584 5.419 1.404-.822.116-.069.132.019 2.795.428.16.027.092.133 1.378 1.958 7.31-.718 4.367-2.801 4.844-6.923.187-1.672-3.333-4.049-.069-.084-.016-.107-.5-3.684-8.207-1.45-.086-.015-.074-.054-3.971-2.89-.074-.053-.039-.075-5.263-9.846-.009-.017-.007-.014-1.663-3.941-1.579-.834-3.183.821-.08.021-.072-.011-.68-.103zm-18.611 61.955l8.909 11.608.079.105v6.09l1.244 1.618.08.105v2.957l.694 1.495 2.702.857 4.134.202 1.281-2.257.037-.065.055-.042 7.829-6.326.814-6.396-3.399-3.08-.055-.051-.034-.071-1.718-3.748-.038-.081.003-.086.209-6.508-10.32-5.45-12.506 9.124z" fill="#fff"/><path d="M151.417 327.661l-7.598 6.139-1.364 2.398-.114.205-.232-.013-3.984-.192.222 3.04 2.481 3.342 4.197.255.209.011.102.183 1.191 2.115.052.09v2.506l2.565 1.22.182.085.03.201.64 4.087 6.723 5.198 3.263-1.503.866-2.016-.511-3.257-.945-1.988-.084-.176.097-.173 1.396-2.463.063-.106.11-.05 5.745-2.652 3.383-3.064.1-3.731-.805-2.504-3.025-2.391-.082-.067-.037-.099-.991-2.668-2.881-.288-4.523 2.101-.094.04-.106-.009-3.221-.322-.155-.016-.102-.12-2.763-3.348z" fill="#fff"/><path d="M170.87 340.678l-.015.59-.003.161-.12.108-3.543 3.212-.044.039-.053.025-5.688 2.624-1.238 2.18.882 1.86.022.045.009.059.538 3.427.016.104-.042.102-.965 2.244-.058.136-.134.061-3.397 1.564-.372 5.79 3.28 2.394.011.008.025.022 2.385 2.253.11.102.009.148.254 3.93 3.44 2.576 5.035-.871 10.069-5.177 1.271-1.753.107-8.338v-.03l.003-.026.968-5.676.019-.1.064-.078 4.405-5.208-3.537-3.904-2.092 1.327-.045.028-.049.016-1.826.536-.157.043-.141-.08-2.792-1.606-.092-.053-.052-.094-2.475-4.521-3.992-.199zm-23.216-33.768l-.206 6.444 1.648 3.589 3.488 3.161.146.135-.027.195-.836 6.579 2.804 3.394 2.961.295 4.522-2.098.093-.043.106.01 2.865.286.264-1.678.016-.096.052-.073 2.041-2.782.013-.016.015-.017 4.088-4.387v-2.899l.111-.109 2.448-2.443-.499-4.986-2.955-1.828-.095-.058-.049-.098-1.284-2.665-6.243.302-1.5 1.797-.212.251-.279-.168-5.431-3.292-1.52-.474-6.545 3.772z" fill="#fff"/><path d="M172.262 320.328l-4.067 4.364-1.975 2.698-.292 1.838 1.001 2.7 3.033 2.395.091.071.034.11.86 2.676.019.062-.001.063-.071 2.613 4.218.211.215.01.1.187 2.526 4.617 2.56 1.47 1.617-.476 2.316-1.468.273-.174.215.24 3.909 4.317 2.628.906 2.37-.097 7.845-6.975.014-.012.022-.016 4.162-2.934-.972-2.618-1.599-4.354-8.038-13.494-4.904-.199-1.708 1.503-.222.196-.241-.161-1.935-1.286-.006-.006-1.91-1.333-.959.782-.067.052-.083.022-3.437.855-.127.033-.121-.055-1.919-.858-1.314 1.22-.106.093-.136.007-3.818.205zm-2.834-16.369l1.166-1.452 1.861-2.68v-6.296l-2.915-1.603-.082-.045-.055-.083-2.256-3.533-.042-.07-.013-.079-.555-3.595-4.016 2.576-.075.048-.093.01-7.627.749-.22.02-.127-.181-1.411-2.005-2.501-.385-1.705 1.001-.419.249-.14-.469-1.641-5.629-3.33-.189-2.782 2.565-.113.104-.154-.003-5.175-.106-2.496 1.096-1.491 2.576.097 2.268 1.308 2.502 1.934 1.102 1.301-1.019.116-.093.148.013 3.005.214.309.022.04.305.322 2.246.039.251-.221.13-2.317 1.365-1.361 1.356v1.769l1.069 1.745 10.463 5.525 6.69-3.853.143-.084.16.05 1.72.533.039.012.042.029 5.197 3.148 1.403-1.677.107-.13.168-.006 6.486-.314z" fill="#fff"/><path d="M167.225 283.981l.609 3.948 2.158 3.378 3.03 1.669.199.106v6.98l-.069.098-1.932 2.782-.019.021-1.139 1.418 1.246 2.574 3.021 1.871.158.096.017.188.539 5.353.017.18-.126.125-2.466 2.46v2.33l3.435-.186 1.401-1.295.187-.175.229.105 2.027.91 3.223-.804 1.119-.91.221-.183.237.164 2.14 1.494 1.692 1.124 1.606-1.414.113-.101.154.006 5.043.205 1.9-2.887 1.298-3.677-1.213-1.116-.026-.024-.018-.02-2.255-2.89-.039-.052-.023-.065-1.824-5.564-.039-.119.039-.116 1.287-3.96.025-.075.049-.058 4.189-4.816.019-.019.013-.013 2.592-2.377.582-2.91-3.306-3.897-7.875.105-.115.001-.096-.061-8.699-5.565-.187-.122.014-.219.198-3.284-1.031-.515-.88.879-.088.087-.129.019-7.439 1.029-.075.67-.011.097-.053.078-4.854 6.939z" fill="#fff"/><path d="M201.294 291.662l-2.09 1.916-4.121 4.737-1.225 3.767 1.765 5.385 2.199 2.816 1.371 1.26.182.169-.082.238-1.395 3.958-.015.049-.025.034-1.912 2.907 7.844 13.17 5.47-3.261.087-.05.099-.003 6.938-.232 7.628-4.583-1.595-4.451-7.467-9.536-3.694-1.611-.075-.033-.055-.058-2.835-3.064-.215-.231.19-.253 2.08-2.765.876-3.488-1.734-1.726-3.749 3.079-.274.227-.245-.258-3.549-3.772-.093-.099-.009-.136-.275-4.102z" fill="#fff"/><path d="M211.41 297.561l.505.502.153.15-.054.211-.944 3.769-.022.074-.046.062-1.936 2.576 2.568 2.773 3.708 1.617.09.037.058.078 7.566 9.659.039.053.021.055 1.606 4.489 2.464-.489 1.787-2.565.105-.15.184-.012 4.575-.351.165-.012.123.116 1.79 1.676 2.867-1.634.833-9.918-4.51-2.471-.186-.103-.011-.211-.228-4.084-2.085-1.868-3.336 1.108-.154.052-.144-.077-11.011-5.836-6.54.724z" fill="#fff"/><path d="M222.606 298.443l6.571 3.483 3.388-1.126.212-.071.165.147 2.363 2.121.117.105.01.158.223 4.03 4.545 2.491.217.119-.021.244-.837 9.957 13.552.114 1.666-1.106.099-.067.121.003 4.458.119.263.006.09.244 1.235 3.474 3.601 1.57.069.03.05.051 3.074 3.117 5.006-5.083.116-.117.161.003 12.158.23.224-7.636.005-.141.094-.106 2.355-2.56-2.662-2.654-6.412 1.597-.149.039-.135-.08-9.694-5.655-.091-.055-.05-.092-5.862-10.747-8.816-5.32-13.488-.694-4.621 3.224-.088.064-.111.007-5.241.225-1.549 2.425-.047.074-.077.047-6.257 3.792zm-20.239-11.272l5.795-2.613-.799-2.707-.026-.085.017-.087 1.782-9.781.063-.335.339.022 5.004.346 6.344-6.152-.83-7.3-6.198.039-.041.399-.555-.493-6.834-6.066-4.091.247-.149.009-.113-.094-4.894-3.986-.097-.08-.031-.126-.868-3.588-3.643-2.585-1.337 1.025-.617 3.327-.061.341-.344-.029-9.013-.771-.124-.01-.096-.086-3.022-2.638-8.795-2.293-.07-.018-.058-.041-4.635-3.344-.021-.014-.025-.025-2.448-2.449-2.375 2.368-1.392 5.782-.016.065-.034.055-2.604 4.005-.087.136-.157.031-6.109 1.176 1.532 3.622 5.211 9.751 3.828 2.785 8.398 1.484.276.049.036.275.523 3.855 3.367 4.089.104.125-.017.157-.054.477 7.118-.985.984-.981.194-.192.246.122 1.502.75.226.111-.014.251-.202 3.312 8.416 5.383 7.938-.105.181-.003.116.137 3.356 3.954z" fill="#fff"/><path d="M239.89 288.156l-4.951-4.713-.163-.157.061-.219 1.908-6.925-3.678-4.499-3.198.169-.124.005-.1-.066-8.31-5.348-6.382 6.191-.124.119-.168-.013-4.836-.333-1.707 9.355.868 2.939.094.317-.303.135-6.177 2.787-.598 2.972.32 4.708 3.207 3.41 3.747-3.073.267-.219.243.243.934.934 7.266-.806.12-.014.1.056 3.618 1.916 6.569-3.978 1.608-2.518.108-.168.196-.009 5.328-.23 4.257-2.968zm-9.225 146.095l-.218 4.634 2.455 5.921 2.869-.612 2.047-1.84 4.303 2.042-.206 2.86-1.228 2.653 1.434 1.632 4.095 1.428 1.638 5.716 1.639 7.145-1.843 4.493 1.843 3.672 4.712-2.854 2.047.61 1.435 3.061 1.023 5.31 3.07 2.244 3.691-2.45 3.482.206 6.552 2.856-.205 3.06 1.434 2.451 3.278.616 2.661-2.86 2.868 2.86 3.688 2.243-.821 5.716.821 3.266 3.686 4.081 3.07 1.022 3.074-1.84 2.459.818 1.844 3.676 7.577 2.451 3.276-2.451 3.278-4.694-5.794-12.641-.52-.352-.102-.075-.044-.124-1.351-4.039.212-.164 3.146-2.454.761-2.271-1.555-3.359-8.12-2.477-3.778.995-1.959 4.596-.111.253-.278-.026-4.902-.473-.136-.014-.096-.097-4.466-4.449-8.256-1.881-.173-.038-.08-.159-1.793-3.456-.123-.238.184-.192 3.221-3.43-2.022-2.127-.117-.119.008-.161.12-2.144.015-.267.258-.075 2.971-.879.317-5.03-4.247.212-2.067 1.374-.518.343-.072-.615-.717-5.955-.036-.296.276-.104 1.922-.748.217-3.531-1.925-2.143-.102-.114.004-.15.237-8.327-2.319-3.231-.07-.104v-11.233l-2.238-4.929-.052-.119.03-.122 1.031-4.454-2.955-3.317-.124.52-.004.021-1.527 5.03-.009.034-.018.036-1.173 2.218-.052.1-.102.058-8.704 4.859-2.176 3.995-.074.136-.148.046-5.984 1.87-.03.008-.028.005-3.062.453-6.133 5.305-.095.083-.125.009-8.862.69-.234.312zm-43.046-3.567l3.91 3.711-.411 4.08-1.021 3.269 2.25 4.085 4.508-2.043 2.252-4.494 2.664-2.854 6.35 1.224 3.482-2.859 2.456-.206 1.843 1.432 6.351-.408 4.71-1.226 3.167-.697.191-.255.11-2.771-.336-2.338-3.115-4.484-.078-.114.009-.136.46-5.464-3.543-4.441-.052-.066-.022-.078-1.288-5.03-.009-.031-.002-.034-.22-2.908-2.923-.971-.037-.014-.024-.012-8.683-4.678-.197-.105-.004-.22-.11-4.717-8.494-1.467-.067-.014-.06-.029-9.036-5.266-.189-.111v-3.157l-1.261-2.198-4.38-.452-.185-.017-.097-.153-6.43-10.088-8.551 4.394-.05.028-.056.008-4.955.857-.38 6.188-.01.158-.119.102-1.368 1.221.395 4.923 2.572 3.351 3.843.804.108.022.079.078 6.918 6.687.116.108v5.314l-.099.111-3.055 3.453-.18 3.255 2.466.175 2.85-1.217.51-.22.02.558.206 5.527 1.735 2.497 4.041.804.298.063.007.301.22 9.255z" fill="#fff"/><path d="M223.001 405.514l.21 2.854 1.264 4.918 3.585 4.493.096.125-.013.143-.456 5.483 3.089 4.449.052.075.011.086.351 2.457.005.029-.003.041-.097 2.494 8.485-.66 6.123-5.295.083-.075.11-.019 3.138-.461 5.812-1.817 2.155-3.957.052-.098.094-.052 8.704-4.857 1.103-2.086 1.511-4.986.546-2.285-4.337-6.249-1.853-1.647-1.987 1.353-.064.044-.074.017-1.762.347-.243.053-.143-.206-3.531-5.056-1.067.795-4.437 4.657-.036.039-.047.026-2.58 1.519-.135.08-.154-.04-3.284-.817-.088-.021-.07-.062-5.028-4.428-3.394-2.481-3.136.334-5.225.681-2.073 2.933-.091 1.283 1.65.821.253.123-.05.277-.585 3.395-.035.202-.191.083-2.213.946z" fill="#fff"/><path d="M211.015 394.669l.106 4.643 8.466 4.558 2.994.993 2.142-.913.503-2.913-1.624-.807-.227-.114.018-.252.117-1.638.006-.106.063-.088 2.229-3.157.098-.136.166-.022 5.396-.699.01-.005 3.285-.347.146-.015.121.086 3.518 2.575.009.003.018.019 4.974 4.377 3.047.762 2.404-1.415 4.422-4.637.02-.024.027-.022 1.09-.816-3.27-4.021-.201-.248.207-.238 1.419-1.634-.308-3.491-6.598-.448-.18-.008-.105-.15-3.766-5.346-4.742-.225-.242-.011-.094-.225-1.738-4.272-5.18-6.154-.703.86-.921 4.585-.016.075-.042.061-1.171 1.753-.163.247-.281-.098-7.943-2.749v8.385l-.095.105-1.704 1.911 1.522 2.926.077.144-.055.158-.705 1.99-.03.079-.07.065-6.446 6.084z" fill="#fff"/><path d="M193.728 350.424l-2.296.097-.07.003-.068-.025-2.545-.879-4.383 5.181-.946 5.543-.105 8.424-.001.119-.071.1-1.397 1.925-.053.075-.08.044-.971.496 6.29 9.879 4.391.447.196.02.097.169 1.409 2.454.05.089v2.924l8.786 5.117 8.548 1.481 6.362-6.005.619-1.747-1.566-3.013-.119-.233.174-.194 1.781-1.999v-8.274l-3.05-.207-.223-.017-.099-.202-2.142-4.616-4.908-.87-1.622 1.4-.344.296-.232-.387-3.052-5.029-.047-.075-.006-.088-.443-5.617h-5.429l-.091-.253-2.344-6.553z" fill="#fff"/><path d="M206.301 340.362l-4.119 2.903-7.742 6.882 2.258 6.323h5.6l.028.352.463 5.872 2.768 4.568 1.422-1.224.138-.121.176.031 5.278.936.2.036.083.179 2.132 4.595 2.774.189v-.128l.502.175 8.171 2.829.971-1.45.923-4.602.019-.092.061-.075 1.042-1.269 1.694-2.816.099-2.006-2.261-1.294-.16-.091-.028-.184-.325-2.385-1.393-.782-.746 1.209-.108.17-.202.008-5.503.225-.727 1.81-.306-.05-2.815-.468-.186-.031-.087-.163-2.934-5.498-.035-.063-.006-.08-.808-8.052-6.311-6.368zm25.705 22.072l-.111 2.249-.05.08-1.621 2.693 5.341 6.345.041.045.022.056.75 1.844 3.954-1.132.019-.008.038-.005 5.223-.664.548-4.037.025-.187.166-.093 2.699-1.52.049-.026.047-.014 5.377-1.339.549-4.479-1.473-7.907-10.237-3.287-5.857 1.653-.564 6.057-.014.172-.141.1-4.78 3.404z" fill="#fff"/><path d="M204.123 332.752l1.505 4.093 1.045 2.812 6.576 6.635.094.096.013.134.814 8.109 2.812 5.27 2.326.386.591-1.471.093-.229.246-.009 5.545-.228.833-1.348.192-.312.322.18 1.875 1.054.164.093.029.189.324 2.383 2.092 1.192 4.588-3.269.571-6.139.025-.263.252-.071 5.948-1.676.29-9.211.353-.014 5.375-.233 2.891-2.305.211-.169.229.144 5.79 3.62 4.572-6.379.223-.311.311.227 5.44 3.917 3.785-1.664 1.655-1.958-3.223-4.185-6.628-6.72-3.686-1.606-.154-.067-.054-.156-1.202-3.378-4.075-.107-1.662 1.103-.094.064-.121-.003-13.978-.113-3.196 1.821-.245.137-.207-.192-1.87-1.753-4.229.324-1.775 2.538-.086.128-.154.03-2.868.572-7.921 4.759-.085.051-.1.005-6.944.23-5.443 3.243z" fill="#fff"/><path d="M257.901 342.944l-5.732-3.583-2.777 2.213-.097.077-.124.008-5.144.22-.266 8.5 10.287 3.304.215.069.044.224 1.523 8.186.013.057-.007.058-.509 4.158 2.771-1.093.039-.018.048-.004 8.605-1.19.087-.013.08.027 6.096 1.905.138.045.075.123 1.908 3.17 3.117-2.897-.231-6.788-1.383-3.327-4.173-4.62-10.747-1.883-.094-.016-.079-.064-2.51-2.027-.102-.082-.029-.129-1.042-4.61z" fill="#fff"/><path d="M278.303 367.517l-2.955 2.745-.343.32-.242-.403-2.076-3.449-5.876-1.836-8.473 1.173-3.115 1.229-.005.036-.256.061-5.587 1.392-2.486 1.401-.56 4.142-.037.286-.291.039-5.479.7-3.855 1.101.627 1.552 4.686.217.186.01.109.154 3.765 5.346 6.743.456.325.022.033.325.35 3.98.012.152-.105.124-1.318 1.515 3.09 3.8.023-.019.226.321 3.611 5.175 1.442-.286 2.162-1.475.248-.167.223.197 2.112 1.872.029.025.03.04 4.458 6.434.097.141-.037.162-.25 1.037 3.44 3.857.133.145-.047.192-1.043 4.52 2.113 4.665h.942l1.333-2.992 1.673-3.694.107-.233.257.01 2.868.119.099.003.087.053 3.758 2.316.9-1.253-.673-4.128-2.664-2.654-.134-.136.026-.188.597-4.169.055-.367.369.043 6.972.824 5.67-1.809.741-4.634-2.01-.297-.143-.023-.092-.11-1.317-1.546-.263-.312.331-.24 2.979-2.171.153-1.006-2.593-.308-.271-.034-.057-.264-.359-1.667-.031-.141.07-.124 1.513-2.688-.971-.729-5.045 2.745-.122.066-.135-.027-5.977-1.189-.16-.036-.088-.14-2.511-4.051-.026-.043-.013-.04-1.553-4.883-.016-.052-.003-.064-.11-11.163z" fill="#fff"/><path d="M279.976 381.132l.725 2.275 2.393 3.866 5.681 1.132 5.136-2.793.213-.114.197.146 1.434 1.071.267.197-.162.291-1.602 2.854.27 1.262 2.716.324.394.048-.061.386-.237 1.55-.025.155-.128.091-2.78 2.025.96 1.129 2.216.33h3.535l3.592-3.24.117-8.176.007-.404.398.032 3.283.223 3.413-3.742 2.127-5.53.027-.07.05-.052 3.295-3.523 3.815-9.79-1.927-1.493-.025-.022-.028-.03-2.249-2.58-3.011.559-.188.035-.141-.133-3.962-3.716-6.17-.219-.105 2.127v.03l-.358 2.979-.019.147-.116.099-4.422 3.692-.187.155-.219-.107-3.518-1.634-2.732-.21-2.782 10.062-.066.238-.245.034-5.998.923-2.798 7.111z" fill="#fff"/><path d="M305.239 394.659l-3.719 3.361-.112.097h-3.525l-.785 4.923-.036.228-.224.071-5.974 1.906-.082.025-.08-.006-6.684-.792-.518 3.615 2.617 2.603.087.085.018.126.718 4.406.025.155-.09.126-1.195 1.666-.209.289-.301-.184-3.98-2.451-2.512-.106-1.567 3.461h-.002l-1.433 3.212-.1.226h-1.301v10.696l2.321 3.237.075.102-.004.126-.237 8.31 1.933 2.148.105.12-.011.156-.237 3.932-.016.241-.229.089-1.873.729.608 5.046 1.635-1.085.087-.056.106-.005 4.78-.242.427-.018-.388 6.14-.014.263-.257.08-2.969.875-.096 1.713 2.158 2.266.248.255-.248.264-3.281 3.495 1.589 3.061 8.193 1.868.11.021.073.08 4.447 4.432 4.485.433 1.92-4.51.077-.168.181-.047 3.822-1.012.557-3.434.479-3.575.036-.262.255-.058 4.882-1.134.562-3.913.011-.07.039-.066 4.061-6.909.056-.088.088-.051 6.813-3.813.176-.097.184.092 3.384 1.743h1.651l1.236-4.365.057-.203.199-.061 3.399-1.05 1.881-1.479-2.627-2.723-1.534.715-2.504 1.309-.145.075-.154-.052-10.874-3.572-.062-.022-.057-.045-2.509-2.027-.07-.054-.038-.086-2.87-6.433-.06-.136.047-.139 1.314-3.812.045-.132.12-.07 5.138-3.097.107-.065.123.012 2.868.238.168.012.103.138 2.272 2.978.074.1.003.123.113 4.942 2.07 1.65 2.656-1.212.093-.044.1.008 2.511.239.104.008.08.063 1.675 1.188.019.017.025.024 3.862 3.733 1.798-.998 1.276-2.548-2.366-3.144-.058-.079-.016-.097-.359-2.499-.015-.123.055-.11 2.48-4.585.533-3.73-2.015-.302-.05-.009-.045-.016-7.054-3.102-.04-.017-.044-.03-2.986-2.387-.09-.068-.034-.111-1.088-3.35-2.877.744-.252.063-.152-.207-1.315-1.787-.056-.075-.014-.092-.479-3.097h.003l-.422-1.888-3.237-.777-.268-.067-.022-.272-.333-4.194-7.549-.343-.367-.012v-5.93l-3.29.104zm23.251-64.598l-5.042 2.296-.146.065-.149-.056-14.345-5.511-4.842 5.41-.239.269-.282-.227-2.28-1.816-.144-.117v-8.742l-1.187-2.804-.091-.221.161-.179 11.489-12.802-.481-5.532-3.332-4.031-4.516.711-6.52 4.248-.102.067-.122-.005-5.809-.24-.816 2.034 4.117 3.863.281.263-.271.278-5.059 5.208-.006.009-2.499 2.715-.232 7.869-.009.379-.375-.01-12.368-.231-4.903 4.974 3.083 3.128.009.008.021.028 3.431 4.448.186.241-.197.234-1.912 2.261-.062.068-.076.036-4.064 1.787-.2.088-.177-.127-5.308-3.825-4.457 6.221 1.009 4.469 2.327 1.88 10.782 1.888.13.022.088.1 4.301 4.763.044.047.023.061 1.436 3.458.027.061.003.07.238 7.028.005.172-.005.005.12 11.799.434 1.367 2.534-6.443.082-.205.216-.033 5.971-.913 2.802-10.129.085-.302.309.026 3.112.237.064.004.068.032 3.364 1.567 4.119-3.444.34-2.818.119-2.482.018-.374.376.013 6.696.239.141.003.103.097 3.923 3.681 3.04-.563.21-.039.143.166 2.363 2.707 1.845 1.431 3.148-3.526 2.448-3.308-2.786-2.429-.128-.114v-4.413l.232-.098 10.61-4.451-.358-5.694-6.329-8.345zm236.809-113.57l2.854.314.527-1.894-1.903-2.108-2.322.738.844 2.95zm9.088 14.636l3.38 1.265 3.488-.633-1.479-5.159-4.229 2.316-1.16 2.211z" fill="#fff"/><path d="M582.354 233.695l-4.127.242-2.049 7.349-6.758-6.124-1.846 6.327 7.173 7.757.409 6.735-13.11-11.635-.408-7.348 5.528-6.736.819-10.819-2.253 1.022-2.663 7.348-4.095 3.674-4.301 1.226-4.097 6.124.204 16.125-10.036 15.718.615 9.594h10.243l8.397 10.003v9.594l-5.943 7.145 1.64 3.265 4.712 2.654-8.806 2.041-2.459-9.186 6.553-11.43-2.865-8.575-10.038-1.429-5.531 5.309-.613 12.043-9.219 9.39-8.396 3.063-5.735 6.124-19.252-11.841v-5.716l12.903 5.919 6.76-2.651 10.855-6.941 7.373-14.699-1.229-7.96 12.495-29.601 1.431-5.101-1.431-6.737 8.193-7.757 1.639-10.819-6.35-8.369 6.521-.85-.955-7.875-6.468-.479-.479 5.729 1.381 3.475-4.098-1.633-6.145 4.696-7.373 9.39-5.735 5.509-8.602 2.044-4.508 4.285 4.508 5.919-4.915 8.778-6.759 2.042-.206 3.062 5.941 6.125-2.05 5.714 1.027 3.675 2.251 3.267-7.579 6.939-2.457-3.877-2.049-8.778-7.998-12.792-4.58 3.801 2.691 4.768.104.187-.104.187-5.613 9.94 2.164 7.091.055.169-.097.145-3.551 5.467-.127.044-5.588 1.856-3.725 4.332-.108.124-.165.008-14.094.625-7.175 5.905-.101.083-.135.002-4.616.073-.413 11.945-.003.114-.067.095-5.517 7.74 3.574 7.519 13.582 1.024.113.01.093.07 6.483 5.003.142.109.006.18.202 6.509 2.29 2.092 15.553.828.172.009.104.134 4.811 6.045.08.097.003.125.413 9.885 2.645 3.447.083.109-.003.133-.199 6.485h10.424l.106.104 9.369 8.501 12.906 5.605.113.05.062.1 4.765 7.844 8.418 5.117 8.552.813 6.994-5.126.252-.189.234.215 6.367 5.938 6.541-.201.205-.01.118.175 4.914 7.143 2.539.193.141.015 4.816 4.799 9.754-12.351.611-7.962.01-.111.061-.083 6.454-8.886-1.193-7.15-7.55-5.644.041-.228 1.843-10.406-4.894-6.707-.086-.116.016-.145 1.544-14.455-6.14-7.957-.126-.161.063-.189 2.449-7.322-2.437-5.772-.169-.404.42-.112 7.921-2.126 3.352-8.484-1.756-10.002-8.282-2.063-.13-.033-.081-.106-7.612-10.013-.11-.143.044-.178 1.522-6.069.045-.177.173-.077 11.393-5.082 1.144-4.543-4.814-10.193-.053-.108.023-.121 1.215-6.676.053-.262.262-.044 4.984-.827-4.657-9.862-.029-.058-.006-.07-.075-.804zM411.697 476.752l5.749-.104 4.709 7.963 3.802.599.118-.129 1.25-3.329.035-.088.062-.057 6.729-6.29 1.042-4.768.022-.099.067-.075 4.052-4.457.144-.163.209.044 5.073 1.01 1.316-2.059.811-3.646-1.393-3.769-4.312-1.637-.179-.07-.052-.186-.64-2.337-.052-.187.126-.154 2.055-2.461.63-6.254.014-.136.1-.095 7.243-7.007.27-.264.265.264 4.047 4.037.228.223-.186.265-2.215 3.126 2.826.528.083.013.067.048 7.335 5.222 5.6-.83.127-.018.113.066 5.247 2.926 5.109.207 6.913-4.728-12.356-9.236-.074-.056-.039-.075-5.966-11.679-.008-.018-4.398-9.808-3.437-.809-.023-.004-.033-.011-7.243-2.975-.066-.025-.053-.05-3.631-3.429-1.077 2.863-.097.255-.273-.009-5.782-.205-1.373 1.564-.047.051-.061.035-3.622 1.911-.122.061-.135-.027-2.809-.6-1.779 1.377-.104.08h-3.829l-.075-.03-4.574-1.986-1.967 3.725-.085.162-.181.035-6.483 1.266-4.173 7.181-.111.197-.231-.009-11.553-.377-3.148 6.635.192 6.471.009.294-.289.083-3.07.853-1.056 5.126 2.628 6.061.006.021.011.036 1.072 4 4.861 1.481.083.027.061.056 4.505 4.067.121.11.005.159.133 4.185 6.634 5.78.11.096.018.15.422 3.786.003.026v.008z" fill="#fff"/><path d="M356.957 469.696l11.536 2.665 6.552 4.085 3.893-3.062 5.735 3.062 19.253 3.676 6.999-3.184.008-.162-.405-3.614-6.644-5.796-.122-.108-.007-.163-.135-4.191-4.321-3.898-4.983-1.52-.203-.063-.055-.202-1.118-4.177-2.663-6.147-.049-.111.024-.119 1.067-5.178-5.477-2.596-4.054 2.02-.276.136-.195-.245-3.308-4.257-7.092-2.45-8.068 2.459.428 2.263.006.035-.001.044-.14 7.29-.003.19-.151.109-10.974 8.173-.257 3.941 8.244 4.927.318.193-.182.32-3.18 5.655z" fill="#fff"/><path d="M311.672 489.718l2.338-3.065 7.786-.614.612-5.513 3.686-2.038 3.894.203 4.711 3.676 2.865-2.653-3.48-5.719-1.639-5.714 3.89-4.085 3.482-1.018 5.326 5.713 11.046.694.002-.03.011-.07.036-.062 3.053-5.433-8.124-4.858-.201-.118.015-.229.283-4.347.012-.175.14-.107 10.97-8.166.136-7.066-.957-5.034-2.934-2.798-1.582.967-.135.083-.155-.035-2.815-.703-.086-.021-.069-.058-11.67-9.969-2.03.51-.564 3.917-.008.066-2.483 4.593.327 2.285 2.453 3.259.141.184-.108.211-1.434 2.859-.052.105-.104.058-2.151 1.19-.246.136-.201-.199-4.044-3.908-1.569-1.116-2.303-.218-2.778 1.269-.213.096-.18-.145-2.392-1.906-.141-.114v-.176l-.118-4.999-2.093-2.74-2.579-.214-4.913 2.958-1.223 3.546 2.771 6.207 2.382 1.922 10.661 3.501 2.365-1.235.015-.003 1.794-.836.244-.114.192.194 3.107 3.215.292.302-.331.26-2.271 1.789-.056.042-.07.024-3.265 1.008-1.337 4.723h-2.41l-.085-.041-3.284-1.695-6.546 3.664-3.97 6.75-.587 4.099-.037.259-.255.057-4.883 1.132-.442 3.314-.003.006-.543 3.37 8.07 2.46.164.052.071.155 1.688 3.645.065.136-.049.141-.844 2.525-.036.11-.091.07-3.025 2.363 1.098 3.284z" fill="#fff"/><path d="M393.412 341.804l-1.998 3.414-1.434 3.272-.022.043-.025.035-6.579 8.679-.016.022-.022.023-9.871 9.645-.052.048-.06.027-8.303 3.764-.178 3.716 2.663 5.115.118.23-.17.192-3.598 4.156-.566 5.476-.013.11-.07.089-2.324 2.893-.107.131-.171.01-7.839.373-1.131 5.078-.132.083-3.292 2.122-.272.175-.218-.24-3.147-3.485-4.375 6.905-.101.159-.183.017-7.202.756-6.172 7.276 1.096 3.386 2.854 2.276 6.963 3.059 2.265.336 2.394-.601.193-.048.146.126 11.754 10.042 2.571.64 1.694-1.04.25-.149.213.202 3.237 3.082.09.089.023.118.411 2.18 8.109-2.473.117-.036.116.041 7.321 2.524.108.034.068.094 3.187 4.097 3.941-1.964.168-.083.167.079 5.782 2.746 2.871-.801-.185-6.263-.001-.091.039-.08 3.289-6.943.106-.224.253.005 11.577.377 4.026-6.925-2.965-4.437-.074-.111.012-.131.386-4.248v-.017l1.127-7.669-7.921-5.078-.103-.065-.047-.115-1.355-3.475-.08-.204.142-.172 4.53-5.455-.936-4.648v-.003l-1.545-8.296-.032-.16.096-.131 3.796-5.297-.187-6.166-4.376-10.43-7.441-4.375-.141-.082-.035-.164-1.139-5.099-2.063-2.093z" fill="#fff"/><path d="M444.411 297.197l-4.44.07-6.39 5.641-.099.087-.133.008-5.774.302-.223.013-.118-.187-1.887-2.957-9.312 8.264-1.489 5.343-.031.111-.082.074-9.835 8.743-10.788 18.415 2.287 2.316.073.078.025.106 1.124 5.049 7.408 4.353.11.064.05.116 4.453 10.612.024.063.003.072.193 6.366.003.127-.074.105-3.777 5.27 1.519 8.132.968 4.821.035.18-.116.136-4.504 5.424 1.229 3.149 8.027 5.144.204.131-.032.241-1.162 7.912-.375 4.084 2.884 4.309 6.225-1.212 2.045-3.874.164-.313 5.149 2.232h3.414l1.815-1.406.14-.109.174.036 2.847.61 3.438-1.814 1.446-1.647.118-.136.18.008 5.693.203 1.18-3.142.203-.535.415.396 3.997 3.773 7.144 2.93 3.598.842.184.044.077.171 4.467 9.963 5.928 11.602 12.506 9.352 6.88-3.927.804-4.203.031-.158.137-.093 4.185-2.71.116-.075.135.019 4.916.588 4.296-13.663.033-.116.1-.074 6.063-4.585.156-.119.182.053 6.483 1.88.063.013.042.029 8.693 5.777 13.269.211h.125l.099.071 9.209 6.732 11.078-6.338.212-.122.202.141 5.732 4.083 6.497-.807 7.122-3.043 1.288-3.3-8.084-4.634-.191-.109v-10.273l-4.808-4.792-2.577-.198-.182-.013-.106-.153-4.902-7.125-6.482.203-.156.003-.116-.104-6.253-5.834-6.858 5.03-.115.084-.146-.014-8.784-.833-.086-.01-.075-.045-8.576-5.214-.083-.047-.045-.08-4.747-7.817-12.857-5.579-.058-.026-.047-.039-9.3-8.445h-10.914l.013-.391.205-6.748-2.639-3.438-.07-.093-.007-.122-.411-9.881-4.627-5.813-15.516-.825-.134-.007-.101-.092-2.509-2.294-.119-.11-.006-.159-.204-6.49-6.252-4.823-13.689-1.032-.221-.019-.093-.199-3.767-7.922-.094-.202.13-.18 5.578-7.828.408-11.793zm-267.01-86.586l-1.85 1.474-1.117 2.897.234 9.588.009.281-.271.088-7.102 2.283-.441 3.295-.039.302-.305.026-2.336.215-.64 2.336-.025.102-.073.067-1.031 1.031 2.426 2.423 4.557 3.286 8.811 2.296.088.022.067.061 2.995 2.615 8.544.731.579-3.13.029-.143.116-.09 1.672-1.284.225-.174.229.164 3.99 2.829.115.082.036.14.871 3.6 4.676 3.813 4.1-.249.16-.007.116.103 6.397 5.678.303-2.912-1.111-3.573-2.904-3.151-.2-.216.16-.247 2.762-4.259-.494-4.683-2.544-4.952-.061-.12.027-.128.69-3.461-2.427-.33-.256-.034-.063-.251-.573-2.292-4.346-.119-.218-.006-.104-.19-1.288-2.316-.1-.179.095-.18 1.106-2.086-.227-2.728-3.361-1.121-.995 1.324-.13.174-.217-.023-2.317-.258-.121-.013-.091-.08-2.316-2.07-3.688.491-.254.033-.127-.222-2.129-3.752-2.431-1.154-4.206 2.102-.402.198-.132-.428-1.122-3.539z" fill="#fff"/><path d="M221.645 265.699l8.307 5.347 3.269-.171.19-.011.124.152 3.924 4.8.124.153-.053.186-1.901 6.895 5.02 4.778 13.573.699.097.006.079.047 8.983 5.422.089.05.05.094 5.861 10.746 9.467 5.521 6.469-1.611.212-.05.15.149 2.8 2.793 4.528-4.664-4.026-3.777-.188-.176.095-.241 1.014-2.524.102-.25.27.011 5.955.248 6.309-4.114v-4.357l-4.345-2.168-.306-.151 1.5-3.99-4.04-1.345-2.652 1.203-.367.166-.146-.376-3.201-8.096-7.855-.245-.168-.006-.108-.126-5.029-5.762-4.766-3-.031-.022-.027-.023-4.56-4.293-.009-.006-.014-.017-13.425-15.151-.117-.13.022-.169 1.014-7.575.016-.113 5.018-5.717-3.255-1.082-.265-.088v-5.442l-4.034.048-2.724 2.595-.116.114-.162-.006-5.664-.257-.152-.009-.109-.11-2.656-2.777-2.542-.061-3.744 1.246-6.052 4.532-3.951 8.276-.113.238-.262-.022-6.586-.507-3.675 1.958-2.617 4.045 2.76 2.996.057.064.028.083 1.158 3.728.022.074-.01.076-.34 3.308 6.455-.041.342-.001.038.339.872 7.644zm-45.402-73.855l-3.967.449-6.348 4.9-3.688 5.103-7.167-.409-4.301 7.146-5.12.613-.206 5.509-7.577 4.9.409 7.145 3.073 3.878-3.482 4.289.819 3.47 4.913 1.224 1.024 5.103-1.548 2.756.321.046 3.252-.835.141-.036.128.068 1.708.9 6.279-1.205 2.478-3.819 1.404-5.824.025-.109.074-.074 3.948-3.935.683-2.492.07-.254.264-.025 2.297-.208.433-3.232.03-.24.229-.073 7.061-2.269-.231-9.377-.001-.074.026-.07 1.184-3.067.036-.095.08-.064 2.273-1.814 2.277-7.028-2.981-4.801-.052-.083-.005-.1-.265-5.887z" fill="#fff"/><path d="M215.094 181.837l-6.767.251-8.4 3.062-.408 6.735.816 3.062-2.455 2.042-1.846-4.696-3.276-.203-5.12-4.901-6.347 4.085-4.29.484.265 5.84 3.021 4.867.094.15-.057.165-2.327 7.19 1.118 3.529 3.977-1.984.168-.083.167.079 2.703 1.286.107.048.058.108 2.063 3.635 3.609-.484.173-.02.13.116 2.355 2.105 1.981.219 1.19-1.588.261.086 3.863 1.288.24.076.021.252.257 3.085.009.11-.053.097-1.062 2.006 1.082 1.944 4.417.125.291.005.069.281.582 2.323 2.573.349.404.056-.823 4.125 2.509 4.895.035.064.006.069.457 4.324 3.364-1.79.099-.055.108.009 6.435.494 3.877-8.121.039-.081.077-.058 6.18-4.629.05-.038.058-.02 3.86-1.285.063-.019h.064l5.401.125 2.82-2.252-5.221-6.789-3.333-.617-.227-.043-.069-.222-1.584-5.231-2.083.199-.35 3.165-.049.424-.416-.094-1.674-.386-.162-.039-.081-.143-1.268-2.184-1.646.485-.238 3.72-.03.442-.433-.096-2.32-.513-.18-.041-.08-.167-1.312-2.737-6.449.123-.205.005-.118-.17-2.588-3.819h-6.287l-.115-.139-1.674-2.06-.196-.241.196-.239 10.466-12.617-.609-12.915zm90.245-25.419l1.709-10.463 2.46 3.47-1.026 7.35 3.072 6.532.819 10.819 4.301 6.532 1.022 6.736 15.978 9.595 9.831-1.837 7.374-10.002 2.045-10.616-3.275-12.656.41-18.372-2.046-6.736-5.122-8.166-.819-6.329 2.252-1.428 3.074 4.286 3.072-2.04-2.869-5.51-10.855-7.352-15.565-1.427-3.074 2.245-7.783 4.492.204 6.122-5.326 8.573-10.444.205-3.48 4.362 7.747 10.292-.036.165-1.207 6.027 6.324 3.153.102.049.056.098 1.075 1.831z" fill="#fff"/><path d="M286.244 198.908l-.497-3.348.615-2.857-2.666-3.675 2.462-4.492 7.576-9.389 6.352-2.042 3.684-6.329 1.385-9.175-1.489-2.532-6.488-3.231-.26-.132.058-.284 1.233-6.146-7.417-9.859-8.732 10.947-4.505-.205-5.737 3.879-4.094-.205-1.64 4.083-1.842 3.47-3.278 2.451 1.843 3.47-2.252 2.244-7.581-1.224-2.046 7.143-1.435 10.819-4.507 1.839-20.071-2.654-9.06.335.273 5.825 4.91-.969.061-.011.065.009 6.436.9.163.023.095.133 2.574 3.6.074.103-.003.127-.129 4.501-.003.134-.089.103-2.219 2.584.25 4.993.004.039-.006.033-.643 4.373-.021.151-.125.093-3.262 2.506-.932 2.446 1.266 2.646 1.701.379.227-3.544.019-.266.257-.073 2.188-.645.285-.081.149.257 1.334 2.3 1.095.253.339-3.048.035-.306.311-.031 2.703-.257.311-.026.089.295 1.609 5.308 3.245.6.144.027.089.114 5.111 6.651.766-2.097-.512-6.349-.006-.105.05-.098 2.318-4.5.023-.045.036-.039 8.368-8.999.153-.165.215.05 4.89 1.159.167.037.08.152 1.545 2.827.063.114-.022.127-.772 4.884-.022.128-.088.088-3.601 3.465-6.104 6.863-1.644 5.856 4.064-.047.386-.006v5.666l3.303 1.096 2.366-2.594.115-.125h3.152l1.202-5.507.022-.105.075-.078 5.624-5.849-1.37-2.277-.003-.004-1.773-3.031-.079-.138.041-.151 1.268-4.545.028-.098.068-.071 5.487-5.47.486-2.906.071-.413.405.107 3.775 1.005 2.326.463 2.893-3.124.049-.054.069-.032.456-.215zm86.258 41.352l-7.555 9.719 2.636 4.065.122.189-.104.197-1.704 3.154 1.232 5.164.066.272-.246.144-4.811 2.777-.203.116-.193-.125-6.234-3.975-5.961.247-.315.014-.072-.311-.979-4.409-15.023-11.535-1.665 2.493 4.18 6.862.079.13-1.298 5.95-.025.113-3.67 3.658 1.624 2.777.045.077.006.083.253 3.029.035.394-.401.017-5.898.244-4.633 6.077-.231 3.657 5.57 2.313 2.351-2.815.07-.083.104-.035 5.321-1.767.312-.101.148.292 3.43 6.839-.24.192-12.277 9.738-.246 5.382-.008.178-.143.106-4.304 3.284-.174.13-.201-.081-5.363-2.188-3.857 3.121-11.42 12.725 1.122 2.657.032.074-.001.073v8.453l1.851 1.481 4.777-5.339.176-.195.246.093 14.442 5.549 5.035-2.293 2.831-6.979.108-.266.283.028 9.575.91.147.013.102.112 7.096 7.976 7.778 4.025 10.902 1.192 4.304-2.366.226-.125 11.972 9.79 7.24 1.01 13.096-22.351.03-.051.045-.041 9.796-8.711 1.489-5.347.03-.107.082-.074 9.728-8.634.336-.297.24.377 2.007 3.145 5.423-.285 6.397-5.644.104-.095.139-.002 9.825-.153 7.167-5.905.099-.078.129-.007 14.059-.624 3.688-4.285.069-.079.1-.033 5.561-1.849 3.308-5.095-2.162-7.078-.048-.158.08-.139 2.583-4.576-2.703-.491-1.758 2.629-.114.169h-3.531l-4.318 3.994-.146.138-.199-.046-5.15-1.207-3.956 4.551-.103.12-.157.011-11.695.945-.138.012-.113-.083-50.739-36.12-4.88 1.52-.072.024-.077-.01-21.925-2.347zm-77.475-55.5l1.578 1.73 2.137-1.423-.61-2.49-1.629-1.22-1.271 1.727-.205 1.676zm152.339 5.696l2.636-1.911v-4.295l-3.115-.716.479 6.922z" fill="#fff"/><path d="M489.552 251.712l-3.903-7.161-10.241-11.024h-7.783l-1.022 4.49-.205 6.739-5.533 3.265-3.074-.611-2.044 3.06-3.892-3.06 4.505-4.083v-4.49l-14.541-.205-7.169-5.308-11.061 1.021-3.891-5.307 6.555-.613 3.482-6.736-8.809-2.042-4.095 4.901-2.049-3.677-22.528-5.511-2.868 2.859-3.278-3.064-11.879 6.942-6.146-5.922 1.844-5.305-1.844-5.309 7.373-2.449 6.76 4.695 3.277-5.306-.206-9.596-9.011-9.796-2.662 9.594-12.291 7.958-1.021 6.124-5.873 5.286 2.305 12.242 6.446 9.637 5.904.735.173.022.096.143 3.191 4.651 21.883 2.343 4.982-1.553.179-.056.157.109 50.778 36.15 11.403-.922 4.006-4.606.153-.175.222.052 5.178 1.215 4.276-3.957.111-.103h3.421l1.784-2.665.136-.208.247.044 3.21.583 2.609-4.619-2.741-4.856-.154-.274.242-.203 4.926-4.088z" fill="#fff"/><path d="M471.552 230.55l-4.55.477-3.59-5.966.957-5.489 5.746-1.433 1.676 6.205-.239 6.206zm-70.312-28.126l3.526 4.623 8.301.219.957-3.081-.517-4.621-4.407-4.769-6.316 2.202-1.544 5.427zm61.692 6.169l1.917-18.137 1.436-6.922 5.984-6.443 7.187-2.386 2.871-4.059-1.675-5.012 5.267 3.344 4.789-.479 1.2-3.58 3.112.238.237-3.579 3.833 1.432.719-3.58 2.873 3.103 2.156-2.863.717-4.298 4.073 2.865 2.632-2.386 5.509 1.193 4.55-5.25 34.96-.718 8.383-4.532.955-6.207-3.59-4.294-8.382 2.145-1.438 3.105-14.366-1.193-6.225-5.252-5.509 3.103-5.508-2.387-6.943 4.536h-5.748l-2.871 2.384-3.834-4.056-1.917 8.354-4.31.239-.477 3.339-10.774 3.342-3.833-1.669-2.395 2.862 3.113 3.103-4.312 4.058-6.945-2.863-.957 5.249-5.027-.237-.239 4.056-6.945 3.58-4.31-1.432-4.79 3.579-.237 5.25 4.547 4.535.238 6.92-4.308 4.298 3.351 7.397 3.832.478.24 3.341 4.311.955 2.873 1.431zm-109.164 4.076l-6.167 5.55-2.868-5.309 4.097-.815-5.121-9.594-7.782 1.222-7.784-2.652-9.625 1.43-5.326 13.269-3.893-2.246-5.529-12.863.822-10.002-9.013 1.023-2.459 8.573 3.892 4.696-3.688 4.897-5.937-3.266-1.025-6.89-.182.084-2.989 3.23-.146.158-.21-.043-2.534-.505-.021-.004-3.397-.906-.438 2.618-.019.122-.084.086-5.505 5.486-1.195 4.291 1.691 2.893 1.519 2.52.147.247-.2.209-5.751 5.982-1.243 5.702-.066.3h-3.433l-2.42 2.651-.014.019-5.225 5.95-.973 7.289 13.292 14.999 4.527 4.26 4.781 3.009.049.031.034.044 4.959 5.68 7.938.247.251.01.094.231 3.145 7.957 2.422-1.096.135-.061.142.048 4.561 1.514.373.125-1.537 4.088 4.254 2.121.21.103v4.588l4.373-.688.215-.033.138.167 3.546 4.29.077.094.013.116.441 5.092 3.494-2.828.174-.142.209.084 5.372 2.19 3.992-3.044.245-5.375.01-.173.134-.108 12.172-9.655-3.008-5.996-4.905 1.631-2.462 2.946-.18.216-.259-.106-6.081-2.527-.251-.104.019-.269.253-4.039.008-.113.07-.093 4.811-6.312.112-.143.177-.009 5.682-.234-.215-2.553-1.728-2.952-.151-.255.209-.205 3.721-3.711 1.209-5.549-4.225-6.938-.126-.208.132-.201 2.027-3.027.229-.34.322.247 15.453 11.867.109.086.03.135.945 4.233 5.763-.239.116-.005.102.064 6.139 3.916 4.365-2.521-1.202-5.028-.033-.141.069-.126 1.668-3.084-2.663-4.104-.149-.226.165-.212 7.684-9.88-3.039-4.426-5.908-.738-.176-.022-.096-.144-6.627-9.908-.016-.08-2.23-11.86zM558.607 73.351l2.545 2.377 3.496-3.009-1.747-2.533-2.543.633-1.751 2.532zm5.564 2.063l1.906 1.58 3.339-1.74.954-3.961-2.546-.632-3.653 4.753zm9.058-.477l3.338 3.01 6.673-3.328-1.271-3.8-4.608-1.9-3.973 3.325-.159 2.693zm7.149-7.128l2.862 1.425 1.908-2.216-2.385-2.22-2.385 3.01zm12.556-7.918l.956 3.009 2.86-1.109-1.114-3.642-2.702 1.742zm-9.535-7.444l1.591 1.425 2.063-1.584-3.017-2.851-1.588 1.268.951 1.742zm-8.58 1.9l.475 2.376 3.181 2.06 1.903-2.852-1.746-3.484-3.813 1.9zm-6.2 2.533l6.041 5.386-.797 4.592-6.039-2.06-3.97-4.59 4.765-3.327zm16.848 17.265l.794 3.485 6.673-.158 2.702-4.435-2.225-3.644-2.86 4.12-4.29-1.108-.794 1.74zm-18.277 7.918l1.748 2.535 1.591-2.06-1.591-2.69-1.748 2.215zm-16.528-17.421l2.702 4.591 3.179-3.007-1.592-3.802-4.289 2.218zm7.786-1.425l.637 2.692 1.747-1.267-1.43-3.009-.954 1.584zm-2.859-15.046l2.067 2.85 1.906-1.9-3.179-2.851-.794 1.901zm-18.752-5.703l.952 3.802 2.862 2.216 4.132-.315 2.543 2.059 1.588-1.902-3.179-2.851-2.86.871-6.038-3.88zm.792 9.662l-.315 3.326 3.019 3.009 3.02 3.801.951-1.743-.794-3.642 4.133-.95 5.244 1.742 3.339-3.326-3.022-3.486-2.542-.949-2.702 2.058-3.656.477-2.222.95-4.453-1.267zm6.518 12.512l-.637 2.216 2.385 1.426.159-3.009-1.907-.633zM72.884 163.704l13.86 29.862 8.616-4.477.748-16.427-4.119-6.344-1.875 7.465-4.12-2.614-3.368-9.706-4.123 2.615-5.62-.374zm48.679 219.448l-.084 2.046-6.345-.2-2.461 3.67-3.277.41-3.889 6.939-6.554 2.452-4.712-6.941-11.06-1.432-5.12 5.311 11.058 6.532-3.276 2.243-5.735-3.471-3.286 2.579 1.963 3.864h4.212l.116.141 4.836 5.952.158.197-3.698 7.089 4.68 5.76.154.188-.111.22-1.103 2.2-.27 4.594 2.75 3.365 2.722-3.12.248.094 4.253 1.59 1.544-2.566.17-.281.303.128 3.414 1.415.235.095v5.402l4.046 1.884.221.102v5.234l2.096 3.392 4.966-.519 1.61-2.946.11-.197h8.306l4.897-5.421-.242-2.649-4.53-.53-.315-.036-.021-.316-.276-3.861-4.207-5.868-.102-.143.047-.177 2.229-8.056-2.748-4.111-.228-.338 6.33-3.606.253-.139.207.202 2.154 2.147 4.162-.258 2.411-4.808-.842-8.114-.025-.23.196-.127 6.347-4.124-1.076-9.94-4.954-.259-3.59 2.477-.207.145-.215-.136-3.98-2.552-4.865-2.587z" fill="#fff"/><path d="M164.332 443.614l6.921-2.278 1.023-5.307 5.943-3.268 6.348-1.633 2.285-.694-.206-8.679-3.894-.778-.149-.029-.088-.129-1.886-2.714-.065-.091-.003-.11-.188-5.087-2.426 1.037-.086.034-.091-.009-2.934-.206-.375-.025.023-.374.209-3.76.005-.133.089-.1 3.046-3.439v-4.713l-6.719-6.495-3.873-.813-.14-.03-.086-.111-2.722-3.553-.069-.087-.011-.11-.399-4.978-5.638-2.006-.141-.052-.071-.137-2.367-4.722-3.044.95-.08.02-.084-.008-5.914-.785-.575 4.013-.026.175-.152.094-5.6 3.409 1.109 10.25.029.233-.2.128-6.347 4.124.83 7.993.011.109-.05.099-2.561 5.103-.095.197-.222.014-4.552.284-.171.01-.122-.124-2.068-2.059-5.367 3.057 2.618 3.913.097.14-.045.171-2.229 8.047 4.063 5.671 10.059 1.084 1.036-2.842.099-.272.29.022 3.415.285.282.023.058.282 1.081 5.12 3.865.514 3.427-2.156.132-.085.149.036 12.154 2.504.173.034.084.15 3.178 5.652z" fill="#fff"/><path d="M134.511 490.241l6.43 2.334 17.204-.409-1.434-6.739 4.301-.816 3.279-18.373-2.87-3.878-4.302-1.018.616-3.47 5.326-4.903-4.745-6.57 2.288-1.187 3.009-1.319-3.039-5.408-11.833-2.438-3.151 1.981 2.166 5.666.039.1-.025.109-2.247 10.639 2.776 4.981.084.15-.054.157-2.812 8.126 1.115 4.995.113.517-.528-.056-5.019-.558-2.65 1.154-.292.128-.175-.263-1.814-2.716-1.621 1.942 2.636 6.263.107.258-.218.182-3.564 2.926-.031.025-.03.014-3.181 1.676 4.146 5.798z" fill="#fff"/><path d="M121.032 492.846l6.391.136 6.107-2.807-4.037-5.643-.251-.351.384-.207 3.531-1.862 3.312-2.718-2.616-6.217-.089-.211.149-.175 2.095-2.507.326-.391.286.421 1.919 2.868 2.448-1.063.095-.044.098.014 4.594.51-1.023-4.59-.024-.107.032-.095 2.791-8.065-2.76-4.954-.069-.128.03-.135 2.25-10.665-2.154-5.638-4.041-.541-.27-.034-.055-.265-1.079-5.107-2.84-.233-1.037 2.841-.104.282-.297-.032-10.073-1.083.23 3.201 4.523.53.306.036.028.306.285 3.119.014.164-.109.122-5.122 5.675-.113.124h-8.194l-1.599 2.919-.097.176-.198.022-5.407.566-.238.028-.126-.207-2.275-3.684-.057-.094v-4.971l-4.046-1.88-.22-.1v-5.378l-2.876-1.194-1.537 2.553-.163.27-.298-.108-4.305-1.607-2.46 2.818 2.784 3.404 2.91-.527.238-.044.141.204 1.913 2.722 3.852 1.098.187.052.067.181 1.695 4.503 4.039 6.899-.025.136-1.117 6.672 4.203 7.541.028.048.01.049 1.425 5.956.011.047-.002.053-.276 6.07 6.424 6.405.055.057.031.078 1.442 3.786z" fill="#fff"/><path d="M81.47 514.074l-2.181 2.178.411 6.123 5.735 8.165-.41 8.573L84 543.199l5.12 6.329 2.46-1.024 1.434-2.446 3.07 1.629 3.28 1.023 3.891-2.451v-10.817l2.663-15.311 9.83-9.391.821-9.8-1.026-4.286 4.764-3.575-1.398-3.672-6.252-6.227-2.294 1.778-.108.083-.141-.005-6.686-.277-3.628 2.843 1.282 2.557.154.311-.294.18-3.229 1.997 4.102 5.843 4.401.821.239.045.061.232 1.423 5.389.085.32-.306.127-3.418 1.417-.081.034-.091-.004-3.449-.265-4.436 8.566-.217.42-.367-.306-3.414-2.878-2.03 2.276-.125.14-.193-.017-8.426-.733z" fill="#fff"/><path d="M79.68 506.422l1.454 3.909.608 3 8.03.702 2.15-2.407.246-.281.284.242 3.333 2.812 4.334-8.368.113-.224.253.022 3.609.277 3.022-1.256-1.278-4.837-4.313-.807-.152-.026-.093-.127-5.865-8.356-4.563-.267-2.186.968 2.486 9.323.083.309-.29.136-11.265 5.256z" fill="#fff"/><path d="M76.943 502.509l.093 1.7 2.164 1.598 11.134-5.197-2.373-8.901-2 .882-1.925 6.074-.033.109-.096.071-2.843 2.271-.054.04-.064.022-4.003 1.331z" fill="#fff"/><path d="M68.329 489.653l.309 7.001 8.194 3.878.066 1.19 3.744-1.243 2.699-2.152 1.942-6.122.052-.161.16-.071 4.564-2.02-3.577-2.878-1.343 2.312-.143.245-.276-.07-9.283-2.241-6.951 2.217-.157.115z" fill="#fff"/><path d="M62.28 475.579l4.312 4.745.204 6.531 1.307 2.02.03-.02.058-.023 7.114-2.266.1-.036.106.026 9.11 2.201 2.903-4.994-1.287-4.111h-4.419l-.11-.102-8.432-7.561-5.986-.272-5.01 3.862z" fill="#fff"/><path d="M51.732 456.005l5.026 8.397v5.105l5.01 5.511 5.17-3.988.11-.084.138.004 5.845.265-.266-6.106-.01-.215.178-.118 3.128-2.078-4.47-8.401-1.517 3.026-.12.236-.263-.027-5.404-.566-.168-.022-.102-.131-2.961-4.028-9.324 3.22z" fill="#fff"/><path d="M49.907 447.274l-.282-4.819-.024-.366-.018-.362.364-.036.365-.035 5-.5v-3.383l.155-.114.155-.114 5.643-4.155-3.6-2.244h-.003l-.049-.032-.047-.031-.04-.042-.04-.049v-.004l-4.553-5.386-.109-.127-.11-.128.024-.166.022-.167.568-4.251.064-.471.061-.461.443.155.443.156 3.983 1.419.123.045.124.044.072.114.07.109 3.19 5.033h5.135l.022.361.02.355.265 4.493 3.159 2.623.144.123.15.118-.01.19-.008.185-.285 6.24-.011.237-.071.093-.074.095-4.553 5.957-.565.738-.564.741-.119-.924-.116-.923-.645-5.165-7.135 7.847-.193.211-.19.207-.25-.119-.258-.117-5.404-2.553-.204-.098-.204-.095-.016-.224-.014-.228zm-7.28-37.782l-2.254 2.653 1.025 3.062 3.276 2.45-.204 5.103 1.844 8.167-.614 7.548-1.435 12.453 1.64 2.248 3.276-1.431 2.153 3.597 9.738-3.364.265-.093.166.224 3.028 4.119 4.976.523 3.648-7.268 3.964-1.582-1.448-2.162-.126-.187 2.244-4.19-2.338-2.07-.303-.268.289-.284 2.752-2.745.268-2.416.022-.216.2-.087 3.128-1.42.316-.143.172.302 2.053 3.58L87 433.433l.273-4.655.006-.074.036-.075 1.028-2.048-4.682-5.766-.159-.193.115-.22 3.585-6.869-4.566-5.617h-4.321l-.106-.211-2.485-4.893-7.494-6.795-1.025 9.799-4.095-2.043-7.786.409-2.867 3.676-5.49-11.529-4.752 6.017.412 7.146z" fill="#fff"/><path d="M87.317 434.154l-2.834 2.315-.35.28-.223-.386-2.106-3.671-2.614 1.184-.275 2.474-.095.092-2.56 2.548 2.26 2.002.223.198-.141.263-2.17 4.055 1.581 2.363.262.391-.436.17-4.135 1.649-1.696 3.381 4.886 9.189.164.302-.289.189-3.232 2.147.266 6.149 8.307 7.451h4.687l.083.267 1.424 4.537.047.158-.084.145-1.4 2.412 4.062 3.262 4.715.278.182.013.107.148 1.343 1.916 2.969-1.836-1.268-2.526-.138-.276.244-.194 3.981-3.117.11-.089.141.009 6.691.277 2.311-1.792.272-6.009-1.398-5.853-4.24-7.608-.063-.119.019-.128 1.116-6.672-3.914-6.688-.014-.022-.012-.036-1.64-4.352-3.797-1.086-.13-.034-.08-.114-1.85-2.635-2.89.527-.22.039-.142-.175-6.017-7.362zm-36.931 8.256l.285 4.818 5.406 2.552 7.69-8.458.559-.613.854 6.805 4.55-5.956.285-6.235-3.285-2.728-.129-.109-.01-.164-.274-4.654H61.48l-.11-.177-3.303-5.214-3.983-1.414-.57 4.252 4.551 5.385h.002v.004l4.075 2.539.475.295-.447.329-6.093 4.489-.003.003v3.685l-.344.036-5.344.53zm639.512 149.334l17.364 6.975 15.976 3.677 3.275 12.657 11.674 6.123 8.193-.207 11.679-6.938 9.011 2.858 9.418-.614 2.459 4.285 5.419.234 1.777-6.549.045-.163.149-.078 5.197-2.71-5.572-6.062-.273-.298.313-.251 5.433-4.383-2.061-6.176-.168-.5h10.863l6.333-5.261.131-.106.165.022 5.685.772 10.607-14.006.101-.136.172-.014 6.787-.517 2.044-3.316.066-.102.121-.048 5.812-2.371 4.428-5.451.507-5.815-4.645-3.088-.168-.115v-6.008l.151-.114 10.122-7.699 3.451-7.937.066-.154.155-.052 8.853-3.114-.502-7.054-5.443-4.906-6.063-1.051-.226-.039-.076-.219-5.066-15.157-3.151-2.877-.246-.225.193-.271 3.138-4.437-.436-4.344-3.716 4.168-.14.154-.204-.029-3.15-.485-1.796 6.892-.051.216-.217.056-16.913 4.546-.251.07-.154-.211-2.839-3.855h-3.926l-.089-.05-3.658-1.945-1.988 4.704-.066.16-.161.051-8.056 2.676-.124.042-.123-.042-4.156-1.464-.982 4.66-.058.269-.269.03-8.192 1.023.714 4.019 4.993 4.19.29.247-.246.289-4.218 4.995-.785 7.546 2.72 6.377.436-1.275 1.666-10.387.008-.065.036-.061 2.718-4.794.129-.219.247.025 3.556.42.287.034.043.286.632 3.961.008.066-.008.056-1.666 9.335.621 9.091 1.448 4.959.041.123-.049.119-1.912 4.875-2.949 2.727-.938 1.683 1.001 3.179.039.127-.053.128-1.257 3.128-.071.179-.188.049-3.072.763-.193 3.475-.01.092-.048.083-3.975 6.462-.075.122-.137.045-5.945 1.835-3.899 5.32-.127.175-.212-.019-4.466-.391-1.189 6.748-.021.105-.07.08-3.346 3.755-.058.061-.075.031-10.712 4.724-1.416 4.833-.058.189-.188.066-6.901 2.292-.392.127-.098-.394-.987-3.935-7.288-1.415-.278-.053-.03-.277-.618-5.314-5.046-6.438h-6.848l-.105-.085-14.011-11.045-.044-.036-.028-.039-4.379-5.948-7.016 4.989-.1.075-.126-.005-4.009-.09.203.882.048.201-.147.151-2.151 2.144.784 3.121.05.194-.131.15-2.968 3.35 2.657 5.126z" fill="#fff"/><path d="M590.785 621.256l26.358-9.879 9.421-.61 1.638 2.446 14.133 3.062 1.024 6.329 5.326 2.652 14.951 1.634 5.94.818 3.071 2.859 4.712-1.634 4.301-3.677 3.071-7.55-5.117-6.123.612-9.391 3.278-1.022.205-4.287 4.301-.202 1.204-4.602-2.768-5.342-.12-.233.172-.193 3.006-3.395-.789-3.142-.052-.209.152-.149 2.153-2.148-.507-2.188-6.163.395-.131.01-.109-.08-15.426-10.72-.926 4.238-.06.277-.279.021-18.762 1.647-1.189 4.94-.052.226-.221.058-3.657.955.382 3.428.026.231-.199.129-5.065 3.231-.196 3.353-.016.281-.279.066-3.469.811-6.203 5.152-.129.109-.166-.02-14.43-1.875-.094-.014-.075-.052-8.863-6.221-4.078-.311-2.644 6.923-.089.227-.245.019-10.254.658.643 7.058 6.143 10.878.171.305-.287.197-4.268 2.948.983 6.698zm-12.603-38.124l4.542-1.622 3.345-1.665 5.627-5.608-1.289-3.535-.04-.111.027-.114 1.006-4.014-1.348-5.381-.047-.183.113-.146 3.741-4.738 1.92-5.741-5.485-1.933-.182-.061-.057-.185-1.031-3.426-.055-.185.116-.153 4.333-5.644-2.367-5.731.027-.114 1.031-4.45.041-.179.169-.08 5.773-2.71 2.851-2.837-6.052-11.732-.066-.122.03-.133.876-4.072-6.534 2.791-.152.066-.153-.066-8.485-3.72-9.707 1.334-3.683 4.336-.113.136h-.179l-9.984-.05-.207 26.792 3.622-.466.378-.047.047.382.671 5.35 5.067 5.384.055.063.025.068 1.677 4.684 4.709 3.35.336.241-.265.314-3.563 4.197 2.868 3.177.135.148-.049.197-1.371 5.474-.039.145-.128.083-3.612 2.293-.306 6.416 8.339.25.164.005.112.124 2.776 3.154z" fill="#fff"/><path d="M533.885 600.477l.717 7.021 6.552 3.677.205 6.94 6.556 1.427 2.661 3.268 7.375-3.88 1.433 5.105 4.71 6.94 7.376.816 2.251-4.901 9.833-.408 6.518-4.831-1.06-7.218-.033-.232.196-.136 4.177-2.882-6.01-10.65-.039-.07-.008-.083-.628-6.844-5.286 4.032-.303.228-.231-.298-4.807-6.157-.11-.146.039-.17 1.676-7.354-2.702-3.069-8.189-.243-.003.111-.292.057-5.152 1.027-.171.034-.139-.109-4.251-3.33-.284 3.405-.01.097-.051.083-4.122 6.158-.126.19-.226-.024-7.477-.674-5.986 1.988-2.413 3.307 3.719 1.855.161.078.041.172 1.029 4.449.094.412-.423.054-6.787.778z" fill="#fff"/><path d="M482.106 539.755l9.893 47.329 5.324-.817 3.688-5.306 3.482 1.428 1.024 5.513 11.263 6.127 8.808-3.269 4.71 2.041 3.372 6.938 6.493-.748-.896-3.86-3.958-1.976-.404-.199.264-.364 2.749-3.764.071-.097.117-.04 6.181-2.05.075-.028.08.009 7.325.664 3.943-5.893.336-4.007.058-.707.556.438 4.669 3.655 4.689-.935.337-7.084.168-.105 3.648-2.316 1.287-5.134-2.955-3.272-.221-.245.215-.251 3.51-4.139-4.47-3.18-.101-.07-.039-.112-1.688-4.719-5.098-5.415-.087-.093-.015-.122-.639-5.095-3.553.452-4.597 4.168-.126.11-.167-.016-8.799-.837-2.651 2.035-.236.18-.23-.18-2.721-2.13-7.645 7.409-.265.258-.264-.258-5.964-5.731-.085-.08-.023-.105-1.05-4.383-4.896-6.51-20.189 6.918-.14.048-.133-.057-4.283-1.832-1.956 1.366-.207.145-.212-.131-3.215-2.002-4.157 2.433z" fill="#fff"/><path d="M466.653 519.686l10.6.238-4.303 4.493 8.875 14.617 4.254-2.486.201-.114.195.119 3.193 1.993 1.923-1.343.176-.123.193.082 4.339 1.855 20.314-6.957.262-.093.166.224 5.112 6.795.052.066.017.075 1.037 4.347 5.619 5.403 7.622-7.387.236-.235.263.208 2.749 2.152 2.534-1.941.119-.094.151.014 8.777.834 4.441-4.022.209-27.052h-3.528l-5.005 4.157-.305.253-.24-.313-2.131-2.761-.089-.113.009-.142.615-10.225-14.732-.413-.22-.009-.103-.188-2.66-4.893-7.649.207-.3.009-.077-.291-1.475-5.445-4.795-6.237-25.792-12.234v8.534l-.188.111-4.864 2.827 1.42 5.457.135.51-.527-.036-6.305-.416-4.908 2.036-2.867 5.099.634 14.759.006.078-.033.084-3.352 7.927z" fill="#fff"/><path d="M426.771 485.388l2.964.857.203 5.304-1.842 2.044 1.228 3.677-4.095 4.693.819 3.47 8.807 2.04.41 4.694 4.301.207 3.276.816 3.276 3.672-4.71 3.878v3.269l4.71-1.428 4.097 2.246 3.686-.818 3.074-2.652 8.823-1.6 3.471-8.214-.634-14.784-.006-.105 3.033-5.402.068-.114.12-.053 5.113-2.122.084-.035.088.008 5.866.387-1.359-5.221-.074-.276.251-.146 4.922-2.863v-20.653l-3.519-3.711-.229-.245.213-.255 3.731-4.552-.331-2.823-6.937 4.743-.105.07-.124-.004-5.328-.216-.093-.003-.08-.044-5.21-2.907-5.626.83-.15.022-.127-.089-7.387-5.261-3.327-.621-.582-.108.342-.484 2.371-3.346-3.557-3.545-6.876 6.65-.621 6.232-.013.115-.077.086-2.002 2.399.538 1.958 4.292 1.63.163.061.06.164 1.492 4.036.036.1-.023.112-.852 3.82-.013.066-.039.056-1.491 2.336-.14.221-.255-.052-5.117-1.019-3.832 4.22-1.043 4.787-.026.115-.084.084-6.757 6.31-1.235 3.286z" fill="#fff"/><path d="M569.748 431.502l-5.546-3.953-11.084 6.341-.213.124-.2-.144-9.317-6.809-13.261-.207-.116-.004-.091-.058-8.74-5.81-6.239-1.805-5.815 4.396-4.356 13.853-.095.303-.313-.039-5.093-.611-3.929 2.547-.806 4.217-.033.176-.154.088-7.027 4.01.396 3.359.017.159-.104.127-3.623 4.41 3.394 3.58.102.111v12.01l26.201 12.427.084.039.054.075 4.901 6.368.047.061.02.07 1.413 5.233 7.585-.204.232-.004.11.203 2.667 4.906 14.905.416.394.009-.654 10.871 1.801 2.331 4.809-3.991.11-.092h4.565v.005l9.805.047 3.663-4.313.094-.115.144-.017 9.959-1.37.105-.012.099.044 8.434 3.696 6.838-2.924.333-6.948.009-.175.139-.107 7.111-5.403.899-3.285-6.175-1.941-.089-.03-.068-.066-4.556-4.543-.016-.131-.686-5.819-.022-.197.153-.133 7.778-6.742.303-3.93-5.131-.642-.206-.026-.093-.184-5.749-11.802-19.717-3.048-.325-.049v-5.935l.085-.105 2.623-3.266-2.739-9.623zm25.427 96.13l-2.366 1.111-.959 4.152 2.357 5.703.081.203-.131.172-4.347 5.666.92 3.053 5.653 1.988.353.123-2.179 6.514-.019.065-.039.05-3.663 4.647 1.328 5.292.023.092-.023.092-1.003 3.997 1.332 3.655.087.227-6.01 5.986-.041.046-.058.025-3.435 1.714-.029.012-.015.005-4.608 1.644-1.63 7.149 4.464 5.718 5.537-4.219.549-.419.029.317 10.029-.641 2.66-6.962.1-.263.284.022 4.203.32 2.979-6.263.066-.141.146-.053 5.346-1.997 1.616-3.55v-4.252l.203-.105 4.93-2.622-.322-4.159-2.043-6.114-.011-.036-.005-.016-1.015-5.746-4.421-6.776-.117-.175.088-.191 1.922-4.15-3.379-2.143-5.707.668-.025.005h-6.47l-.089-.26-3.126-9.18zm-9.377-302.928l3.487 4.527 2.43-1.052-.742-6.32-2.429-1.262-2.746 4.107zm9.721-28.748l1.795 2.317 1.9-2-.843-3.16-2.43.738-.422 2.105zm66.783-111.602l7.667 1.402-1.789-5.727-5.365.125-.513 4.2zm6.389 14.389l4.215-5.601-1.023-4.967 4.087-2.673 4.088-4.075 4.599 4.075 2.555 7.255 1.534 3.185-4.216 2.29v3.947l-10.474 4.711-5.365-4.839v-3.308zm-3.833 6.237l8.048 3.056-1.15 3.819-3.705 2.037-5.365-3.692-.896-3.564 3.068-1.656zm7.153 12.733l3.577-8.787 9.836-4.837 1.788 6.749 2.554-.764.383-2.928 4.472 4.327-.383 5.729-3.32 5.346 2.809 3.311-.766 4.965-3.576 1.911-7.281-4.966-6.516-5.602-3.705-1.656.128-2.798zm25.676 4.964l-.893 11.458-4.345 7.893 1.664 5.983 7.152-5.728 7.534-.51 3.961-3.946.511-9.167-4.216-5.347-3.576 3.566-1.917-2.038.257-5.475-6.132 3.311zm21.075 16.551l.638 3.055 5.624 1.273-.256-2.165-5.623-3.435-.383 1.272zm-42.665 22.916l2.939 2.164 2.172-1.273-1.531-3.182-3.58 2.291zm-25.929-4.201l3.703 2.036.256-2.927-2.425-2.801-1.788 1.526.254 2.166zm22.865 12.222l1.406 1.528 1.787-1.658-2.041-2.161-1.152 2.291zm-62.405 38.427l2.852 2.632 1.902-1.894-.741-2.95-2.429-.631-1.584 2.843zm6.868 3.37l1.585 1.159 1.052-2.001-1.795-2-.842 2.842zm4.12-7.687l1.585 1.053.951-1.791-2.431-1.578-.105 2.316zm2.853-4.211l1.796 1.368 1.69-2.422-2.747-2-1.48 1.052.741 2.002zm-12.787-14.533l2.01 1.37 2.958-1.792-1.69-2.948-2.537-.735-2.429 2.103 1.688 2.002zm6.341-10.32l-.739 1.791 1.585 2.211 1.688-1.789.107-2.003-2.641-.21zm-4.775-72.469l-.463 2.393 2.473 2.474 3.482.077-.157-3.091-2.396-3.166-2.939 1.313zm15.47-18.616l3.247 1.002 3.56-.924-2.09-4.635-2.632-2.088-1.854 1.778-.386 2.936.155 1.931zm95.446 487.558l-.718-3.759-.062-.333.322-.102 3.653-1.149-1.577-5.5-.097-.333.331-.124 4.367-1.634.321-.122.156.306 3.401 6.783 8.483-5.034.3-.175.202.281 2.931 4.088.003.005 2.514 2.292 3.278-1.224.071-.027h4.803l.116.18 2.25 3.558.146.223-.168.212-8.814 11.176-.219.287-.295-.207-5.356-3.755-6.562.615-.127.012-.11-.07-3.847-2.419-.022-.013-4.596-3.334-4.734-.396-.287-.021-.057-.287zm37.041-188.036l-2.476 2.742-.085.092-.122.025-5.888 1.234-5.333 2.364.295 5.899 1.538 3.98.058.149-.068.144-3.03 6.651 3.01 4.799.048.08.008.087.622 7.146.009.109-.049.099-4.679 9.012-.05.096-.086.053-7.788 4.779 2.925 4.959.129.216-.151.2-3.314 4.512 1.759 5.842 6.663 2.111.211.066.049.216.935 4.352.043.194-.137.145-4.896 5.181-.276 3.599 3.124.847.195.052.066.194 1.56 4.665.075.219-.17.167-3.67 3.66-1.533 5.492-.132.48-.428-.25-6.857-4.041-.1-.061-.054-.111-3.27-7.109-6.325 2.863-.907 6.007-.012.12-.08.081-13.917 15.107.609 6.978.023.277-.259.106-3.74 1.555-.338.141-.153-.33-5.35-11.546-3.667 4.777-.109.144-.179.005-14.438.616-5.714 10.489 6.428 10.065.087.133-.037.153-1.247 5.591-.056.259-.261.036-6.355.904-3.614 6.901-1.241 18.57-.025.391-.392-.041-6.132-.61-4.362 2.025v3.633l10.495 9.368 15.765 10.957 6.352-.412.325-.016.071.316.247 1.062 4.071.097 7.219-5.139.306-.221.223.305 4.572 6.213 13.862 10.932h6.961l.113.145 5.231 6.673.066.085.009.108.598 5.138 7.256 1.406.237.049.058.233.948 3.772 6.323-2.1 1.263-4.325h-6.843l-.105-.22-1.464-3.128-.146-.306.297-.175 3.138-1.882.066-.039.075-.009 4.304-.613 8.648-5.952 3.092-4.731.027-.041.039-.034 6.409-5.767 1.431-4.282.014-.039.022-.032 3.763-6.465.009-.014 4.579-7.048 3.954-10.797 2.956-8.665-3.093-7.247-.036-.092.01-.097.806-7.76.01-.114.076-.093 4.05-4.793-4.811-4.036-.105-.091-.023-.131-.807-4.553-.07-.395.401-.047 8.321-1.037 1.017-4.818.088-.426.411.144 4.442 1.564 7.764-2.577 2.081-4.928.163-.383.366.197 3.944 2.091h4.126l.113.16 2.799 3.803 16.452-4.424 1.819-7.009.088-.334.338.052 3.289.502 4.155-4.66.579-.646.594 5.921 10.026 1.537 5.897-4.09.254-7.63-6.275-4.432-.155-.104-.006-.183-.539-9.632-.009-.199.159-.122 3.489-2.675.099-.076.122-.004 8.563-.249-8.046-18.184-4.32-2.983-7.571 3.43-.383.177-.132-.405-2.768-8.27-12.093-4.818-6.047 1.001-9.443 20.222-.022.044-.035.039-6.35 7.387-.27.311-.296-.287-4.582-4.568-2.927 5.185-.105.185-.216.009-8.699.347-5.905 4.503-.273.206-.235-.252-5.649-5.977-.115-.123.013-.163 1.057-15.477.005-.061.028-.063 5.123-11.919-6.649-1.987-.167-.051-.07-.158-3.175-7.033-.051-.119.026-.126 2.406-9.921-5.4-3.023-.202-.114.009-.233.353-9.75-3.988-7.615-3.178 2.212-.11.08-.131-.009-4.589-.352-.356-.027v-5.484l.181-.111 3.557-2.257-2.945-4.446z" fill="#fff"/><path d="M713.186 562.23l.857 6.103 6.354.716.15.015.153.018.125.128.122.118 6.571 6.46 5.324 4.543 9.199-1.168.202-.022.205-.027.161.161.164.152 7.231 6.879 12.046-20.735-2.855-6.111h-6.089l-4.596 2.327-.317.155-.307.161-.247-.307-.245-.297-3.586-4.452h-.007l-.043-.057-.045-.052-.031-.067-.031-.06-3.901-7.389-11.707 9.416-.505.409-.502.401-.261-.707-.265-.707-4.643-12.563-5.322 2.695 2.119 10.022.153.689.143.692-.511.213-.503.218-4.76 2.03zm118.256 34.714l1.878-4.817.083-.211.085-.216.229-.026.224-.027 10.595-1.29 3.041-6.312.219-.461.222-.461.378.347.378.345 2.429 2.215 2.529-5.965.079-.187.08-.185.199-.041.198-.039 5.368-1.072v.004l.146-.029.149-.032.127.08.127.083v-.005l6.444 4.015.225.14.221.136-.097.51-.807 4.282-.044.242-.048.246-.244.058-.237.056-3.164.738 5.382 4.919h.004l.408.377.414.38-.505.24-.502.246-22.288 10.7-.189.092-.189.092-.175-.109-13.063-8.138-.269-.169-.268-.166.113-.296.115-.289zm-46.296 23.88l3.43.146 3.482 6.535 26.829 2.446 18.024-10.817 5.739-.204 1.842-5.919 8.804-8.165 12.291-.614 3.684 3.47 5.12-4.696 21.714 3.474 3.071-8.371 7.374-5.104-3.072-7.551 3.278-20.414 5.531-5.513-3.689-9.799-7.783-.816 5.533-10.206 9.755-6.748-8.972-13.413.149-.211 2.98-4.207-5.274-3.004-.173-.103-.018-.201-.771-10.255-5.205 1.233-.277.066-.142-.25-3.299-5.829-6.923 3.833-.253.138-.201-.203-4.293-4.277-.229-.227.185-.264 2.459-3.427-8.531-5.67-.08-.049-.044-.087-10.899-20.13-8.77.259-3.229 2.477.514 9.251 6.289 4.444.168.119-.005.202-.276 8.218-.155.109-6.175 4.284-.128.082-.145-.021-10.241-1.567-2.892 4.083 2.975 2.715.071.065.031.097 5.032 15.034 5.949 1.032.106.019.083.075 5.641 5.081.112.104.012.15.539 7.493.017.291-.273.095-8.974 3.154-3.422 7.876-.041.091-.075.062-10.052 7.643v5.231l4.663 3.095.185.125-.018.224-.539 6.158-.007.113-.074.092-4.566 5.617-.058.075-.093.036-5.791 2.362-2.084 3.375-.101.165-.194.014-6.809.523-10.634 14.045-.136.176-.221-.031-5.742-.777-6.311 5.239-.11.094h-10.075l1.98 5.919.084.25-.203.164-5.329 4.295 5.637 6.127.331.36-.436.234-5.491 2.864-1.69 6.222z" fill="#fff"/><path d="M834.029 592.404l-1.877 4.814 12.884 8.027 22.288-10.703h-.005.005l-5.914-5.402-.533-.483.704-.167 3.86-.906.807-4.282-6.442-4.014-5.368 1.071-2.746 6.461-.211.497-.397-.365-2.825-2.577-3.128 6.5-.095.189-.205.026-10.802 1.314zM754.29 383.346l-.229.154-4.477-3.507h-10.272l.669-6.016.012-.114.071-.087 5.889-7.097 1.74-4.636-3.807-2.625-.163-.114v-5.338l-3.333-3.619-.131-.143.039-.191 1.511-7.222-4.191-3.212.279-.307 5.812-6.402-2.164-27.086-6.797-10.423 3.403-1.75 8.19-6.65.127-.101.155.017 4.834.567 1.753-8.458.014-.074.039-.059 2.39-3.568.595-4.763.02-.152.12-.098 10.048-7.951-4.318-5.162-.089-.107v-8.208l-8.756-12.342-.049-.064-.017-.083-1.2-6.285-2.688-3.569-.088-.116.014-.14.286-3.574-5.403 2.691-6.143 4.695-8.4 2.451-3.274 5.714.202-8.165 17.002-17.554 9.422-16.943 4.301-15.105-13.11-14.904-12.286-.406-4.301 6.122-4.918.818 3.688-10.412-10.036-1.225 3.276-4.694-6.143-5.103-5.531 2.042-8.808 13.063 2.05 7.757-9.421.613.204 2.449 3.48 5.104-6.757-1.429-3.483 3.265-7.783-1.428-1.021-3.47-11.063.204.206 6.329-13.316 1.835-9.011 7.144-6.962.207-5.122 4.491-2.253 9.185 4.301 7.758-6.554 1.632-17.41-2.858-10.036-.204-3.072 5.511-.41 14.289 6.349 6.126 3.074 7.144h-8.808l-7.578-14.086-5.558.325.066.712 4.844 10.257.211.455-.494.082-5.214.864-1.15 6.293 4.819 10.206.058.124-.033.131-1.216 4.854-.047.179-.17.076-11.396 5.081-1.435 5.713 7.419 9.76 8.393 2.091.24.059.044.246 1.838 10.467-.537 1.354v-.009l-2.965 7.5-.071.181-.188.05-7.683 2.063 2.323 5.502.056.131-.044.134-2.434 7.269 6.115 7.918.094.12-.015.151-1.546 14.459 4.902 6.718.096.132-.027.159-1.831 10.334 7.298 5.456.119.086.025.155 1.246 7.452.03.16-.094.131-6.485 8.92-.615 7.973-.01.114-.07.092-10.008 12.675v9.867l8.172 4.68.285.163-.119.303-1.464 3.75-.06.15-.147.066-7.32 3.128-.047.017-.053.008-6.25.777 2.705 9.518.053.186-.124.153-2.662 3.315v5.02l19.591 3.033.2.029.086.182 5.746 11.788 5.29.659.364.043-.03.36-.344 4.449-.012.16-.118.1-7.745 6.715.648 5.486 4.306 4.291 6.434 2.025.347.11-.095.352-1.031 3.762-.033.129-.102.075-7.072 5.372-.335 7.009-.009.236-.039.014-.96 4.47 6.119 11.857.127.245-.196.197-3.093 3.078-.042.05-.061.025-2.611 1.226 3.061 9.003h5.894l5.81-.68.133-.017.115.075 3.775 2.392.284.18-.142.301-1.971 4.258 4.349 6.668.044.066.014.075 1.027 5.797 2.047 6.127.016.049.002.045.345 4.448.02.247-.221.119-4.949 2.624v3.963l-.033.073-1.717 3.766-.064.144-.151.058-5.347 1.998-2.887 6.074 8.608 6.04 14.172 1.845 6.148-5.109.071-.056.086-.024 3.279-.767.192-3.26.011-.193.164-.105 5.028-3.206-.428-3.843.318-.084 3.756-.984 1.199-4.988.065-.269.273-.027 18.752-1.642.938-4.304-10.47-9.347-.127-.119v-4.444l.219-.105 4.676-2.175.098-.044.1.009 5.845.585 1.219-18.255.008-.075.036-.075 3.742-7.145.091-.177.193-.025 6.288-.896 1.153-5.183-6.461-10.119-.12-.189.105-.199 5.925-10.874.104-.189.217-.009 14.471-.613 3.947-5.139.384-.502.264.571 5.457 11.785 3.145-1.304-.6-6.87-.012-.168.114-.122 13.948-15.139.909-6.035-.041-.194 7.475-3.427.159.348 3.38 7.343 6.328 3.73 1.428-5.114.026-.1.066-.07 3.578-3.561-1.419-4.244-3.235-.879-.303-.083.022-.313.312-4.039.014-.133.091-.1 4.854-5.134-.851-3.946-6.645-2.108-.195-.061-.058-.189-1.872-6.213-.053-.182.115-.153 3.279-4.459-2.988-5.068-.189-.321.317-.197 8.015-4.915 4.575-8.814-.604-6.954-3.072-4.894-.105-.17.084-.185 3.054-6.693-1.503-3.892-.022-.057-.005-.061-.312-6.21-.01-.261.239-.105 5.609-2.485.04-.017.04-.009 5.8-1.217 2.507-2.776-2.073-2.582-4.388 2.912zm479.97-9.373l-1.64-20.415-2.25-9.391-6.76-6.735.61-10.003 3.48-2.859-11.67-13.472.21-9.39 4.91-5.307-1.23-5.306-9.83-2.859-10.04-17.759 2.46-1.635 3.08 4.287 4.91-3.062-7.58-7.144-4.1 2.246-6.54-4.232-.11.124-3.38-7.937h-6.76l-.82 4.695-4.3-.408-13.93-27.762.82-8.778 5.53-1.224-4.09-16.33 8.81 6.94.2-19.598 6.96-7.144 10.45-.203-5.94-14.495-2.84-31.221-6.76 2.042-.15.046-.14-.074-5.03-2.638-8.7 24.896-.09.263-.28-.009-11.06-.282-10.22 3.111-.34.106-.13-.341-3.32-9.119-13.78.825-2.47 4.369-.08.145-.16.041-9.5 2.225-1.64 4.919-.08.231-.25.025-5.16.543-1.64 5.725-.06.196-.19.061-5.96 1.89 1.07 5.848 8.56 12.404 5.31 1.114.21.042.07.194 3.64 9.477 6.04-.551.16-.014.12.116 4.03 3.725.09.084.03.124 1.12 5.842 5.55 3.127 3.85-3.577-10.45-12.451 2.46-8.167 10.04-3.47-5.33 7.963 1.23 6.124 7.99 5.511 3.68.204-.2 5.714 3.48.819-3.28 16.33 3.69 6.123 1.23 18.985 2.87 12.248 3.89 12.248-4.51 4.9 1.43 4.694-2.45 3.267 6.35 7.347 1.02 11.635 8.72 9.809v-.002l10.33 11.629 56.53 37.766zm-850.836-29.62l-.103-.014-.083-.067-11.659-9.532-4.18 2.301-.107.059-.119-.014-11.484-1.301.012-.078-7.66-3.965-.063-.031-.047-.055-7.044-7.916-9.143-.868-2.702 6.659 6.457 8.507.067.091.007.116.383 6.077.017.267-.251.103-10.626 4.461v3.567l2.917 2.543.265.226-3.338 4.451-.008-.03-2.902 3.25-3.918 10.057-.027.071-.049.051-3.298 3.519-2.123 5.531-.027.066-.047.056-3.585 3.925-.123.138-.186-.009-3.065-.21-.108 7.536 3.43-.104.392-.014v5.986l7.521.339.337.018.027.333.337 4.25 3.195.77.232.056.051.23.477 2.147.007.023.465 3.005 1.105 1.504 2.86-.741 6.33-7.463.096-.119.155-.014 7.169-.749 4.546-7.178.273-.425.334.373 3.267 3.619 2.886-1.862 1.128-5.056.064-.285.289-.013 7.958-.378 2.145-2.669.57-5.486.013-.119.078-.089 3.507-4.049-2.589-4.98-.047-.093.005-.101.193-4.05.012-.233.21-.095 8.458-3.83 9.799-9.58 6.542-8.628 1.224-2.795-7.101-.993z" fill="#fff"/><path d="M187.34 301.646l-3.2-1.694-3.215 1.666.63-3.557-2.585-2.531 3.586-.504 1.619-3.231 1.589 3.245 3.583.535-2.605 2.508.598 3.563z" fill="#D9252A"/><path d="M45.962 394.216l-4.58-10.177-8.17-.697-4.537-7.292 7.085-3.974-.834-5.014 1.724-4.215-3.437-8.789-.728-5.636h-5.241l-2.883 2.294-9.545-4.405-8.995-.699-1.15 2.81 5.352 5.636-.61 4.482 2.853 2.63-6.445 5.892H2.008L0 369.728l5.82 8.658 10-.769 5.665 6.422 4.747-.697 5.253 2.682-.585 4.529 7.222 5.776 7.84-2.113z" fill="#fff"/></g><defs><clipPath id="clip0"><path fill="#fff" d="M0 0h1260v649H0z"/></clipPath></defs></svg>