<svg width="245" height="86" fill="none" xmlns="http://www.w3.org/2000/svg"><g clip-path="url(#clip0)" fill="#fff"><path d="M105.729 38.23a.73.73 0 01-.729-.73c0-9.65 7.85-17.5 17.5-17.5 6.964 0 12.71 4.155 16.616 12.017a.728.728 0 11-1.305.649c-2.542-5.113-7.26-11.208-15.311-11.208-8.845 0-16.042 7.197-16.042 16.042a.73.73 0 01-.729.73z"/><path d="M139.271 33.125h-5.833a.73.73 0 110-1.458h5.104v-5.043a.729.729 0 111.458 0v5.772a.73.73 0 01-.729.729zM122.5 55c-6.964 0-12.709-4.155-16.616-12.017a.728.728 0 111.305-.649c2.542 5.113 7.26 11.208 15.311 11.208 8.845 0 16.042-7.197 16.042-16.042a.73.73 0 111.458 0c0 9.65-7.85 17.5-17.5 17.5z"/><path d="M105.729 49.105a.73.73 0 01-.729-.729v-5.772a.73.73 0 01.729-.729h5.833a.73.73 0 110 1.458h-5.104v5.043a.728.728 0 01-.729.73z"/></g><path d="M31.55 65.425l.12-.598H9.096C4.356 64.827.5 60.97.5 56.23v-43c0-4.74 3.857-8.596 8.596-8.596h67.808c4.74 0 8.596 3.856 8.596 8.596v43c0 4.74-3.857 8.596-8.596 8.596H54.33l.12.598 2.646 13.23.08.403h8.978a1.154 1.154 0 110 2.307H19.846a1.154 1.154 0 110-2.307h8.977l.08-.402 2.647-13.231zm-.254 13.035l-.12.598h23.647l-.12-.598-2.646-13.231-.08-.402H34.023l-.08.402-2.647 13.23zm51.896-22.23v-.5h0v-4.134H2.808v4.635a6.295 6.295 0 006.288 6.288h67.808a6.295 6.295 0 006.288-6.288zm-.5-6.941h.5V13.23a6.295 6.295 0 00-6.288-6.289H9.096a6.295 6.295 0 00-6.288 6.289v29.442H13.23a1.154 1.154 0 110 2.308H2.808v4.307h79.884z" fill="#fff" stroke="#000"/><path d="M40.192 57.058A2.811 2.811 0 0143 54.25a2.811 2.811 0 012.808 2.808A2.811 2.811 0 0143 59.865a2.811 2.811 0 01-2.808-2.807zM52.325 32.3l.353-.353 2.924-2.924a1.154 1.154 0 00-.557-1.94l-15.202-3.509s0 0 0 0 0 0 0 0a1.155 1.155 0 00-1.076.309s0 0 0 0M52.325 32.3l-13.558-8.417M52.325 32.3l.353.354 3.509 3.508s0 0 0 0c.45.45.45 1.181 0 1.632 0 0 0 0 0 0l-3.509 3.508h0c-.225.226-.52.338-.816.338-.295 0-.59-.112-.815-.338l-3.509-3.508-.353-.354-.354.354-2.923 2.923a1.155 1.155 0 01-1.94-.556s0 0 0 0l-3.51-15.203M52.326 32.3L38.46 24.958m.308-1.075a1.154 1.154 0 00-.308 1.075m.308-1.075l-.308 1.075m0 0h0m0 0h0m13.05 13.543l.353.354.354-.354 1.17-1.17.353-.353-.353-.354-3.509-3.508a1.154 1.154 0 010-1.632s0 0 0 0l1.983-1.983.638-.638-.879-.203-9.717-2.242-.78-.18.18.78 2.243 9.717.203.879.638-.638 1.983-1.983h0c.225-.226.52-.338.816-.338.296 0 .59.112.816.338l3.508 3.508zM34.207 20.954h0L32.553 19.3s0 0 0 0a1.154 1.154 0 011.632-1.631l1.654 1.653s0 0 0 0c.45.451.45 1.182 0 1.632h0c-.225.226-.52.338-.816.338-.296 0-.59-.112-.816-.338zm-3.577 2.992h2.338a1.154 1.154 0 110 2.308h-2.339a1.154 1.154 0 110-2.308zm3.555 8.585h0c-.225.226-.52.338-.816.338a1.154 1.154 0 01-.816-1.97l1.654-1.653s0 0 0 0a1.154 1.154 0 011.632 1.631h0l-1.654 1.654zm11.577-11.577h0l1.654-1.654h0c.45-.45.45-1.18 0-1.631 0 0 0 0 0 0m-1.654 3.285l.354.354a1.648 1.648 0 01-1.17.484 1.654 1.654 0 01-1.17-2.823l1.654-1.654a1.654 1.654 0 012.34 0l-.354.354m-1.654 3.285c-.225.226-.52.338-.816.338a1.154 1.154 0 01-.816-1.97l1.654-1.653m-.022 3.285l.022-3.285m1.632 0a1.154 1.154 0 00-1.632 0s0 0 0 0m1.632 0h-1.632m-6.953-1.925a1.154 1.154 0 112.308 0v2.34a1.154 1.154 0 11-2.308 0v-2.34zM19.719 44.459a1.644 1.644 0 01-.895.894l.895-.894zm0 0c.041-.1.074-.204.094-.31l-.094.31zm-.397-.863h0l.001.008a1.132 1.132 0 010 .446h0l-.001.007a1.048 1.048 0 01-.065.21h0v.002c-.03.07-.065.136-.107.199h0l-.002.003a1.086 1.086 0 01-.311.312h0l-.005.003a1.123 1.123 0 01-.197.105h0-.003a1.122 1.122 0 01-.663.067 1.18 1.18 0 01-.216-.066h0l-.003-.001a1.14 1.14 0 01-.198-.106h0l-.003-.002a1.085 1.085 0 01-.312-.312h0l-.003-.004a1.115 1.115 0 01-.105-.198h0l-.002-.002a1.048 1.048 0 01-.064-.21h0l-.001-.007a1.132 1.132 0 010-.446h0l.001-.008a1.105 1.105 0 01.171-.41h0l.002-.003a1.085 1.085 0 01.312-.312h0l.005-.003a1.06 1.06 0 01.197-.105h0l.003-.001c.073-.03.143-.052.209-.065h.007c.148-.03.299-.03.447 0h.007c.066.013.136.034.209.065h.002c.07.03.136.065.2.107h0l.002.002a1.085 1.085 0 01.312.311h0l.003.005a1.173 1.173 0 01.17.41zM190.55 65.425l.12-.598h-22.574c-4.739 0-8.596-3.857-8.596-8.596v-43c0-4.74 3.857-8.596 8.596-8.596h67.808c4.739 0 8.596 3.856 8.596 8.596v43c0 4.74-3.857 8.596-8.596 8.596H213.33l.12.598 2.646 13.23.081.403h8.977a1.154 1.154 0 010 2.307h-46.308a1.154 1.154 0 010-2.307h8.977l.081-.402 2.646-13.231zm-.254 13.035l-.119.598h23.646l-.119-.598-2.646-13.231-.081-.402h-17.954l-.081.402-2.646 13.23zm51.896-22.23v-.5h0v-4.134h-80.384v4.635a6.295 6.295 0 006.288 6.288h67.808a6.295 6.295 0 006.288-6.288zm-.5-6.941h.5V13.23a6.295 6.295 0 00-6.288-6.289h-67.808a6.295 6.295 0 00-6.288 6.289v29.442h10.423a1.154 1.154 0 010 2.308h-10.423v4.307h79.884z" fill="#fff" stroke="#000"/><path d="M199.192 57.058A2.812 2.812 0 01202 54.25a2.812 2.812 0 012.808 2.808A2.812 2.812 0 01202 59.865a2.812 2.812 0 01-2.808-2.807zM211.325 32.3l.353-.353 2.924-2.924a1.152 1.152 0 00-.557-1.94l-15.202-3.509s0 0 0 0 0 0 0 0a1.157 1.157 0 00-1.076.309s0 0 0 0m13.558 8.417l-13.558-8.417m13.558 8.417l.353.354 3.509 3.508s0 0 0 0c.45.45.45 1.181 0 1.632 0 0 0 0 0 0l-3.509 3.508h0a1.146 1.146 0 01-.815.338c-.296 0-.591-.112-.816-.338l-3.509-3.508-.353-.354-.354.354-2.923 2.923a1.154 1.154 0 01-1.941-.556s0 0 0 0l-3.508-15.203m13.866 7.342l-13.866-7.342m.308-1.075a1.153 1.153 0 00-.308 1.075m.308-1.075l-.308 1.075m0 0h0m0 0h0m13.05 13.543l.354.354.353-.354 1.169-1.17.354-.353-.354-.354-3.508-3.508a1.155 1.155 0 010-1.632s0 0 0 0l1.983-1.983.638-.638-.879-.203-9.717-2.242-.779-.18.18.78 2.242 9.717.203.879.638-.638 1.983-1.983h0c.225-.226.52-.338.816-.338.296 0 .59.112.816.338l3.508 3.508zm-17.302-17.547h0l-1.654-1.654s0 0 0 0a1.155 1.155 0 011.632-1.631l1.654 1.653s0 0 0 0c.45.451.45 1.182 0 1.632h0c-.225.226-.52.338-.816.338a1.15 1.15 0 01-.816-.338zm-3.578 2.992h2.339a1.154 1.154 0 010 2.308h-2.339a1.154 1.154 0 010-2.308zm3.556 8.585h0c-.225.226-.52.338-.816.338a1.155 1.155 0 01-.816-1.97l1.654-1.653s0 0 0 0a1.154 1.154 0 011.632 1.631h0l-1.654 1.654zm11.577-11.577h0l1.654-1.654h0c.45-.45.451-1.18 0-1.631 0 0 0 0 0 0m-1.654 3.285l.354.354a1.649 1.649 0 01-1.17.484 1.654 1.654 0 01-1.169-2.823l1.654-1.654a1.653 1.653 0 012.338 0l-.353.354m-1.654 3.285a1.15 1.15 0 01-1.632 0 1.155 1.155 0 010-1.632l1.654-1.653m-.022 3.285l.022-3.285m1.632 0a1.154 1.154 0 00-1.632 0s0 0 0 0m1.632 0h-1.632m-6.953-1.925a1.154 1.154 0 012.308 0v2.34a1.154 1.154 0 01-2.308 0v-2.34zm-19.112 28.715a1.65 1.65 0 01-.895.894l.895-.894zm0 0c.041-.1.074-.204.094-.31l-.094.31zm-.397-.863h0l.001.008a1.147 1.147 0 010 .446h0l-.001.007a1.059 1.059 0 01-.065.21h0l-.001.002a1.1 1.1 0 01-.106.199h0l-.002.003a1.064 1.064 0 01-.311.312h0l-.005.003a1.126 1.126 0 01-.197.105h0-.003a1.118 1.118 0 01-.663.067 1.18 1.18 0 01-.216-.066h0l-.003-.001a1.12 1.12 0 01-.198-.106h0l-.003-.002a1.078 1.078 0 01-.312-.312h0l-.003-.004a1.095 1.095 0 01-.105-.198h0l-.002-.002a1.052 1.052 0 01-.064-.21h0l-.001-.007a1.075 1.075 0 010-.446h0l.001-.008a1.097 1.097 0 01.171-.41h0l.002-.003a1.1 1.1 0 01.312-.312h0l.004-.003c.062-.041.128-.077.198-.105h0l.003-.001c.073-.03.143-.052.209-.065h.007c.148-.03.299-.03.447 0h.007c.066.013.136.034.209.065h.002c.07.03.136.065.199.107h0l.003.002a1.078 1.078 0 01.312.311h0l.003.005a1.196 1.196 0 01.171.41z" fill="#fff" stroke="#000"/><defs><clipPath id="clip0"><path fill="#fff" transform="translate(105 20)" d="M0 0h35v35H0z"/></clipPath></defs></svg>