<svg width="29" height="45" fill="none" xmlns="http://www.w3.org/2000/svg"><path d="M14.5 0C6.964 0 .833 6.726.833 14.993v15.015C.833 38.275 6.963 45 14.5 45c7.536 0 13.667-6.725 13.667-14.992V14.993C28.167 6.726 22.036 0 14.5 0zm12.148 30.008c0 7.348-5.45 13.325-12.148 13.325-6.699 0-12.148-5.977-12.148-13.325V14.993c0-7.348 5.45-13.326 12.148-13.326 6.698 0 12.148 5.978 12.148 13.326v15.015z" fill="#fff"/><path d="M14.5 5c-.42 0-.76.373-.76.833v7.547c0 .46.34.833.76.833s.76-.373.76-.833V5.833c0-.46-.34-.833-.76-.833z" fill="#fff"/></svg>